# 3ds Max Wavefront OBJ Exporter v0.97b - (c)2007 guruware
# File Created: 10.09.2014 21:19:23

mtllib BuildingSite2.mtl

#
# object Cylinder100
#

v  -4.5185 0.0000 4.5000
v  -4.3685 0.0000 4.2402
v  -4.2185 0.0000 4.5000
v  -4.6685 0.0000 4.2402
v  -4.8185 0.0000 4.5000
v  -4.6685 0.0000 4.7598
v  -4.3685 0.0000 4.7598
v  -4.3685 10.0000 4.2402
v  -4.2185 10.0000 4.5000
v  -4.6685 10.0000 4.2402
v  -4.8185 10.0000 4.5000
v  -4.6685 10.0000 4.7598
v  -4.3685 10.0000 4.7598
v  -4.5185 10.0000 4.5000
# 14 vertices

vn 0.0000 -1.0000 -0.0000
vn 1.0000 0.0000 0.0000
vn 0.5000 0.0000 -0.8660
vn 1.0000 0.0000 -0.0000
vn -0.5000 0.0000 -0.8660
vn -1.0000 0.0000 0.0000
vn -1.0000 0.0000 -0.0000
vn -0.5000 0.0000 0.8660
vn 0.5000 0.0000 0.8660
vn 0.0000 1.0000 -0.0000
# 10 vertex normals

vt 0.5000 0.0000 0.0000
vt 0.9167 0.0000 1.0000
vt 0.7500 0.0000 1.0000
vt 0.0833 0.0000 1.0000
vt -0.0833 0.0000 1.0000
vt 0.2500 0.0000 1.0000
vt 0.4167 0.0000 1.0000
vt 0.5833 0.0000 1.0000
vt 0.9167 1.0000 1.0000
vt 0.7500 1.0000 1.0000
vt 0.0833 1.0000 1.0000
vt -0.0833 1.0000 1.0000
vt 0.2500 1.0000 1.0000
vt 0.4167 1.0000 1.0000
vt 0.5833 1.0000 1.0000
vt 0.5000 1.0000 0.0000
# 16 texture coords

g Cylinder100
usemtl wire_038021002
s 1
f 1/1/1 2/2/1 3/3/1 
f 1/1/1 4/4/1 2/5/1 
f 1/1/1 5/6/1 4/4/1 
f 1/1/1 6/7/1 5/6/1 
f 1/1/1 7/8/1 6/7/1 
f 1/1/1 3/3/1 7/8/1 
s 8
f 3/3/2 8/9/3 9/10/4 
f 3/3/2 2/2/3 8/9/3 
f 2/5/3 10/11/5 8/12/3 
f 2/5/3 4/4/5 10/11/5 
f 4/4/5 11/13/6 10/11/5 
f 4/4/5 5/6/7 11/13/6 
f 5/6/7 12/14/8 11/13/6 
f 5/6/7 6/7/8 12/14/8 
f 6/7/8 13/15/9 12/14/8 
f 6/7/8 7/8/9 13/15/9 
f 7/8/9 9/10/4 13/15/9 
f 7/8/9 3/3/2 9/10/4 
s 1
f 14/16/10 9/10/10 8/9/10 
f 14/16/10 8/12/10 10/11/10 
f 14/16/10 10/11/10 11/13/10 
f 14/16/10 11/13/10 12/14/10 
f 14/16/10 12/14/10 13/15/10 
f 14/16/10 13/15/10 9/10/10 
# 24 faces

#
# object Cylinder098
#

v  4.4815 0.0000 -4.5000
v  4.6315 0.0000 -4.7598
v  4.7815 0.0000 -4.5000
v  4.3315 0.0000 -4.7598
v  4.1815 0.0000 -4.5000
v  4.3315 0.0000 -4.2402
v  4.6315 0.0000 -4.2402
v  4.6315 10.0000 -4.7598
v  4.7815 10.0000 -4.5000
v  4.3315 10.0000 -4.7598
v  4.1815 10.0000 -4.5000
v  4.3315 10.0000 -4.2402
v  4.6315 10.0000 -4.2402
v  4.4815 10.0000 -4.5000
# 14 vertices

vn 0.0000 -1.0000 -0.0000
vn 1.0000 0.0000 0.0000
vn 0.5000 0.0000 -0.8660
vn 1.0000 0.0000 -0.0000
vn -0.5000 0.0000 -0.8660
vn -1.0000 0.0000 0.0000
vn -1.0000 0.0000 -0.0000
vn -0.5000 0.0000 0.8660
vn 0.5000 0.0000 0.8660
vn 0.0000 1.0000 -0.0000
# 10 vertex normals

vt 0.5000 0.0000 0.0000
vt 0.9167 0.0000 1.0000
vt 0.7500 0.0000 1.0000
vt 0.0833 0.0000 1.0000
vt -0.0833 0.0000 1.0000
vt 0.2500 0.0000 1.0000
vt 0.4167 0.0000 1.0000
vt 0.5833 0.0000 1.0000
vt 0.9167 1.0000 1.0000
vt 0.7500 1.0000 1.0000
vt 0.0833 1.0000 1.0000
vt -0.0833 1.0000 1.0000
vt 0.2500 1.0000 1.0000
vt 0.4167 1.0000 1.0000
vt 0.5833 1.0000 1.0000
vt 0.5000 1.0000 0.0000
# 16 texture coords

g Cylinder098
usemtl wire_038021002
s 1
f 15/17/11 16/18/11 17/19/11 
f 15/17/11 18/20/11 16/21/11 
f 15/17/11 19/22/11 18/20/11 
f 15/17/11 20/23/11 19/22/11 
f 15/17/11 21/24/11 20/23/11 
f 15/17/11 17/19/11 21/24/11 
s 8
f 17/19/12 22/25/13 23/26/14 
f 17/19/12 16/18/13 22/25/13 
f 16/21/13 24/27/15 22/28/13 
f 16/21/13 18/20/15 24/27/15 
f 18/20/15 25/29/16 24/27/15 
f 18/20/15 19/22/17 25/29/16 
f 19/22/17 26/30/18 25/29/16 
f 19/22/17 20/23/18 26/30/18 
f 20/23/18 27/31/19 26/30/18 
f 20/23/18 21/24/19 27/31/19 
f 21/24/19 23/26/14 27/31/19 
f 21/24/19 17/19/12 23/26/14 
s 1
f 28/32/20 23/26/20 22/25/20 
f 28/32/20 22/28/20 24/27/20 
f 28/32/20 24/27/20 25/29/20 
f 28/32/20 25/29/20 26/30/20 
f 28/32/20 26/30/20 27/31/20 
f 28/32/20 27/31/20 23/26/20 
# 24 faces

#
# object Cylinder101
#

v  5.1936 0.4220 -3.9804
v  5.2449 0.5629 -4.2402
v  5.2962 0.7039 -3.9804
v  5.1423 0.2810 -4.2402
v  5.0910 0.1401 -3.9804
v  5.1423 0.2810 -3.7206
v  5.2449 0.5629 -3.7206
v  -5.0917 4.3252 -4.2402
v  -5.0404 4.4661 -3.9804
v  -5.1944 4.0433 -4.2402
v  -5.2457 3.9023 -3.9804
v  -5.1944 4.0433 -3.7206
v  -5.0917 4.3252 -3.7206
v  -5.1431 4.1842 -3.9804
# 14 vertices

vn 0.9397 -0.3420 -0.0000
vn 0.3420 0.9397 0.0000
vn 0.1710 0.4698 -0.8660
vn -0.1710 -0.4698 -0.8660
vn -0.3420 -0.9397 0.0000
vn -0.1710 -0.4698 0.8660
vn 0.1710 0.4698 0.8660
vn -0.9397 0.3420 -0.0000
# 8 vertex normals

vt 0.5000 0.0000 0.0000
vt 0.9167 0.0000 1.0000
vt 0.7500 0.0000 1.0000
vt 0.0833 0.0000 1.0000
vt -0.0833 0.0000 1.0000
vt 0.2500 0.0000 1.0000
vt 0.4167 0.0000 1.0000
vt 0.5833 0.0000 1.0000
vt 0.9167 1.0000 1.0000
vt 0.7500 1.0000 1.0000
vt 0.0833 1.0000 1.0000
vt -0.0833 1.0000 1.0000
vt 0.2500 1.0000 1.0000
vt 0.4167 1.0000 1.0000
vt 0.5833 1.0000 1.0000
vt 0.5000 1.0000 0.0000
# 16 texture coords

g Cylinder101
usemtl wire_038021002
s 1
f 29/33/21 30/34/21 31/35/21 
f 29/33/21 32/36/21 30/37/21 
f 29/33/21 33/38/21 32/36/21 
f 29/33/21 34/39/21 33/38/21 
f 29/33/21 35/40/21 34/39/21 
f 29/33/21 31/35/21 35/40/21 
s 8
f 31/35/22 36/41/23 37/42/22 
f 31/35/22 30/34/23 36/41/23 
f 30/37/23 38/43/24 36/44/23 
f 30/37/23 32/36/24 38/43/24 
f 32/36/24 39/45/25 38/43/24 
f 32/36/24 33/38/25 39/45/25 
f 33/38/25 40/46/26 39/45/25 
f 33/38/25 34/39/26 40/46/26 
f 34/39/26 41/47/27 40/46/26 
f 34/39/26 35/40/27 41/47/27 
f 35/40/27 37/42/22 41/47/27 
f 35/40/27 31/35/22 37/42/22 
s 1
f 42/48/28 37/42/28 36/41/28 
f 42/48/28 36/44/28 38/43/28 
f 42/48/28 38/43/28 39/45/28 
f 42/48/28 39/45/28 40/46/28 
f 42/48/28 40/46/28 41/47/28 
f 42/48/28 41/47/28 37/42/28 
# 24 faces

#
# object Cylinder107
#

v  -4.9671 0.4220 -4.9584
v  -5.0184 0.5629 -4.6986
v  -5.0697 0.7039 -4.9584
v  -4.9158 0.2810 -4.6986
v  -4.8645 0.1401 -4.9584
v  -4.9158 0.2810 -5.2182
v  -5.0184 0.5629 -5.2182
v  5.3182 4.3252 -4.6986
v  5.2669 4.4661 -4.9584
v  5.4208 4.0433 -4.6986
v  5.4721 3.9023 -4.9584
v  5.4208 4.0433 -5.2182
v  5.3182 4.3252 -5.2182
v  5.3695 4.1842 -4.9584
# 14 vertices

vn -0.9397 -0.3420 0.0000
vn -0.3420 0.9397 0.0000
vn -0.1710 0.4698 0.8660
vn 0.1710 -0.4698 0.8660
vn 0.3420 -0.9397 -0.0000
vn 0.1710 -0.4698 -0.8660
vn -0.1710 0.4698 -0.8660
vn 0.9397 0.3420 -0.0000
# 8 vertex normals

vt 0.5000 0.0000 0.0000
vt 0.9167 0.0000 1.0000
vt 0.7500 0.0000 1.0000
vt 0.0833 0.0000 1.0000
vt -0.0833 0.0000 1.0000
vt 0.2500 0.0000 1.0000
vt 0.4167 0.0000 1.0000
vt 0.5833 0.0000 1.0000
vt 0.9167 1.0000 1.0000
vt 0.7500 1.0000 1.0000
vt 0.0833 1.0000 1.0000
vt -0.0833 1.0000 1.0000
vt 0.2500 1.0000 1.0000
vt 0.4167 1.0000 1.0000
vt 0.5833 1.0000 1.0000
vt 0.5000 1.0000 0.0000
# 16 texture coords

g Cylinder107
usemtl wire_038021002
s 1
f 43/49/29 44/50/29 45/51/29 
f 43/49/29 46/52/29 44/53/29 
f 43/49/29 47/54/29 46/52/29 
f 43/49/29 48/55/29 47/54/29 
f 43/49/29 49/56/29 48/55/29 
f 43/49/29 45/51/29 49/56/29 
s 8
f 45/51/30 50/57/31 51/58/30 
f 45/51/30 44/50/31 50/57/31 
f 44/53/31 52/59/32 50/60/31 
f 44/53/31 46/52/32 52/59/32 
f 46/52/32 53/61/33 52/59/32 
f 46/52/32 47/54/33 53/61/33 
f 47/54/33 54/62/34 53/61/33 
f 47/54/33 48/55/34 54/62/34 
f 48/55/34 55/63/35 54/62/34 
f 48/55/34 49/56/35 55/63/35 
f 49/56/35 51/58/30 55/63/35 
f 49/56/35 45/51/30 51/58/30 
s 1
f 56/64/36 51/58/36 50/57/36 
f 56/64/36 50/60/36 52/59/36 
f 56/64/36 52/59/36 53/61/36 
f 56/64/36 53/61/36 54/62/36 
f 56/64/36 54/62/36 55/63/36 
f 56/64/36 55/63/36 51/58/36 
# 24 faces

#
# object Cylinder112
#

v  -4.0041 0.4220 -5.3536
v  -4.2639 0.5629 -5.4049
v  -4.0041 0.7039 -5.4562
v  -4.2639 0.2810 -5.3023
v  -4.0041 0.1401 -5.2510
v  -3.7442 0.2810 -5.3023
v  -3.7442 0.5629 -5.4049
v  -4.2639 4.3252 4.9317
v  -4.0041 4.4661 4.8804
v  -4.2639 4.0433 5.0343
v  -4.0041 3.9023 5.0856
v  -3.7442 4.0433 5.0343
v  -3.7442 4.3252 4.9317
v  -4.0041 4.1842 4.9830
# 14 vertices

vn 0.0000 -0.3420 -0.9397
vn 0.0000 0.9397 -0.3420
vn -0.8660 0.4698 -0.1710
vn -0.8660 -0.4698 0.1710
vn 0.0000 -0.9397 0.3420
vn 0.8660 -0.4698 0.1710
vn 0.8660 0.4698 -0.1710
vn -0.0000 0.3420 0.9397
# 8 vertex normals

vt 0.5000 0.0000 0.0000
vt 0.9167 0.0000 1.0000
vt 0.7500 0.0000 1.0000
vt 0.0833 0.0000 1.0000
vt -0.0833 0.0000 1.0000
vt 0.2500 0.0000 1.0000
vt 0.4167 0.0000 1.0000
vt 0.5833 0.0000 1.0000
vt 0.9167 1.0000 1.0000
vt 0.7500 1.0000 1.0000
vt 0.0833 1.0000 1.0000
vt -0.0833 1.0000 1.0000
vt 0.2500 1.0000 1.0000
vt 0.4167 1.0000 1.0000
vt 0.5833 1.0000 1.0000
vt 0.5000 1.0000 0.0000
# 16 texture coords

g Cylinder112
usemtl wire_038021002
s 1
f 57/65/37 58/66/37 59/67/37 
f 57/65/37 60/68/37 58/69/37 
f 57/65/37 61/70/37 60/68/37 
f 57/65/37 62/71/37 61/70/37 
f 57/65/37 63/72/37 62/71/37 
f 57/65/37 59/67/37 63/72/37 
s 8
f 59/67/38 64/73/39 65/74/38 
f 59/67/38 58/66/39 64/73/39 
f 58/69/39 66/75/40 64/76/39 
f 58/69/39 60/68/40 66/75/40 
f 60/68/40 67/77/41 66/75/40 
f 60/68/40 61/70/41 67/77/41 
f 61/70/41 68/78/42 67/77/41 
f 61/70/41 62/71/42 68/78/42 
f 62/71/42 69/79/43 68/78/42 
f 62/71/42 63/72/43 69/79/43 
f 63/72/43 65/74/38 69/79/43 
f 63/72/43 59/67/38 65/74/38 
s 1
f 70/80/44 65/74/44 64/73/44 
f 70/80/44 64/76/44 66/75/44 
f 70/80/44 66/75/44 67/77/44 
f 70/80/44 67/77/44 68/78/44 
f 70/80/44 68/78/44 69/79/44 
f 70/80/44 69/79/44 65/74/44 
# 24 faces

#
# object Cylinder105
#

v  -5.0424 4.7335 -5.5175
v  -5.3022 4.8835 -5.5175
v  -5.0424 5.0335 -5.5175
v  -5.3022 4.5835 -5.5175
v  -5.0424 4.4335 -5.5175
v  -4.7826 4.5835 -5.5175
v  -4.7826 4.8835 -5.5175
v  -5.3022 4.8835 5.4825
v  -5.0424 5.0335 5.4825
v  -5.3022 4.5835 5.4825
v  -5.0424 4.4335 5.4825
v  -4.7826 4.5835 5.4825
v  -4.7826 4.8835 5.4825
v  -5.0424 4.7335 5.4825
# 14 vertices

vn -0.0000 0.0000 -1.0000
vn 0.0000 1.0000 -0.0000
vn -0.8660 0.5000 0.0000
vn -0.8660 -0.5000 0.0000
vn -0.0000 -1.0000 0.0000
vn 0.8660 -0.5000 -0.0000
vn 0.8660 0.5000 -0.0000
vn 0.0000 -0.0000 1.0000
# 8 vertex normals

vt 0.5000 0.0000 0.0000
vt 0.9167 0.0000 1.0000
vt 0.7500 0.0000 1.0000
vt 0.0833 0.0000 1.0000
vt -0.0833 0.0000 1.0000
vt 0.2500 0.0000 1.0000
vt 0.4167 0.0000 1.0000
vt 0.5833 0.0000 1.0000
vt 0.9167 1.0000 1.0000
vt 0.7500 1.0000 1.0000
vt 0.0833 1.0000 1.0000
vt -0.0833 1.0000 1.0000
vt 0.2500 1.0000 1.0000
vt 0.4167 1.0000 1.0000
vt 0.5833 1.0000 1.0000
vt 0.5000 1.0000 0.0000
# 16 texture coords

g Cylinder105
usemtl wire_038021002
s 1
f 71/81/45 72/82/45 73/83/45 
f 71/81/45 74/84/45 72/85/45 
f 71/81/45 75/86/45 74/84/45 
f 71/81/45 76/87/45 75/86/45 
f 71/81/45 77/88/45 76/87/45 
f 71/81/45 73/83/45 77/88/45 
s 8
f 73/83/46 78/89/47 79/90/46 
f 73/83/46 72/82/47 78/89/47 
f 72/85/47 80/91/48 78/92/47 
f 72/85/47 74/84/48 80/91/48 
f 74/84/48 81/93/49 80/91/48 
f 74/84/48 75/86/49 81/93/49 
f 75/86/49 82/94/50 81/93/49 
f 75/86/49 76/87/50 82/94/50 
f 76/87/50 83/95/51 82/94/50 
f 76/87/50 77/88/51 83/95/51 
f 77/88/51 79/90/46 83/95/51 
f 77/88/51 73/83/46 79/90/46 
s 1
f 84/96/52 79/90/52 78/89/52 
f 84/96/52 78/92/52 80/91/52 
f 84/96/52 80/91/52 81/93/52 
f 84/96/52 81/93/52 82/94/52 
f 84/96/52 82/94/52 83/95/52 
f 84/96/52 83/95/52 79/90/52 
# 24 faces

#
# object Cylinder097
#

v  -4.5185 0.0000 -4.5000
v  -4.3685 0.0000 -4.7598
v  -4.2185 0.0000 -4.5000
v  -4.6685 0.0000 -4.7598
v  -4.8185 0.0000 -4.5000
v  -4.6685 0.0000 -4.2402
v  -4.3685 0.0000 -4.2402
v  -4.3685 10.0000 -4.7598
v  -4.2185 10.0000 -4.5000
v  -4.6685 10.0000 -4.7598
v  -4.8185 10.0000 -4.5000
v  -4.6685 10.0000 -4.2402
v  -4.3685 10.0000 -4.2402
v  -4.5185 10.0000 -4.5000
# 14 vertices

vn 0.0000 -1.0000 -0.0000
vn 1.0000 0.0000 0.0000
vn 0.5000 0.0000 -0.8660
vn 1.0000 0.0000 -0.0000
vn -0.5000 0.0000 -0.8660
vn -1.0000 0.0000 0.0000
vn -1.0000 0.0000 -0.0000
vn -0.5000 0.0000 0.8660
vn 0.5000 0.0000 0.8660
vn 0.0000 1.0000 -0.0000
# 10 vertex normals

vt 0.5000 0.0000 0.0000
vt 0.9167 0.0000 1.0000
vt 0.7500 0.0000 1.0000
vt 0.0833 0.0000 1.0000
vt -0.0833 0.0000 1.0000
vt 0.2500 0.0000 1.0000
vt 0.4167 0.0000 1.0000
vt 0.5833 0.0000 1.0000
vt 0.9167 1.0000 1.0000
vt 0.7500 1.0000 1.0000
vt 0.0833 1.0000 1.0000
vt -0.0833 1.0000 1.0000
vt 0.2500 1.0000 1.0000
vt 0.4167 1.0000 1.0000
vt 0.5833 1.0000 1.0000
vt 0.5000 1.0000 0.0000
# 16 texture coords

g Cylinder097
usemtl wire_038021002
s 1
f 85/97/53 86/98/53 87/99/53 
f 85/97/53 88/100/53 86/101/53 
f 85/97/53 89/102/53 88/100/53 
f 85/97/53 90/103/53 89/102/53 
f 85/97/53 91/104/53 90/103/53 
f 85/97/53 87/99/53 91/104/53 
s 8
f 87/99/54 92/105/55 93/106/56 
f 87/99/54 86/98/55 92/105/55 
f 86/101/55 94/107/57 92/108/55 
f 86/101/55 88/100/57 94/107/57 
f 88/100/57 95/109/58 94/107/57 
f 88/100/57 89/102/59 95/109/58 
f 89/102/59 96/110/60 95/109/58 
f 89/102/59 90/103/60 96/110/60 
f 90/103/60 97/111/61 96/110/60 
f 90/103/60 91/104/61 97/111/61 
f 91/104/61 93/106/56 97/111/61 
f 91/104/61 87/99/54 93/106/56 
s 1
f 98/112/62 93/106/62 92/105/62 
f 98/112/62 92/108/62 94/107/62 
f 98/112/62 94/107/62 95/109/62 
f 98/112/62 95/109/62 96/110/62 
f 98/112/62 96/110/62 97/111/62 
f 98/112/62 97/111/62 93/106/62 
# 24 faces

#
# object Cylinder109
#

v  5.1936 0.4220 4.9246
v  5.2449 0.5629 4.6648
v  5.2962 0.7039 4.9246
v  5.1423 0.2810 4.6648
v  5.0910 0.1401 4.9246
v  5.1423 0.2810 5.1844
v  5.2449 0.5629 5.1844
v  -5.0917 4.3252 4.6648
v  -5.0404 4.4661 4.9246
v  -5.1944 4.0433 4.6648
v  -5.2457 3.9023 4.9246
v  -5.1944 4.0433 5.1844
v  -5.0917 4.3252 5.1844
v  -5.1431 4.1842 4.9246
# 14 vertices

vn 0.9397 -0.3420 -0.0000
vn 0.3420 0.9397 0.0000
vn 0.1710 0.4698 -0.8660
vn -0.1710 -0.4698 -0.8660
vn -0.3420 -0.9397 0.0000
vn -0.1710 -0.4698 0.8660
vn 0.1710 0.4698 0.8660
vn -0.9397 0.3420 -0.0000
# 8 vertex normals

vt 0.5000 0.0000 0.0000
vt 0.9167 0.0000 1.0000
vt 0.7500 0.0000 1.0000
vt 0.0833 0.0000 1.0000
vt -0.0833 0.0000 1.0000
vt 0.2500 0.0000 1.0000
vt 0.4167 0.0000 1.0000
vt 0.5833 0.0000 1.0000
vt 0.9167 1.0000 1.0000
vt 0.7500 1.0000 1.0000
vt 0.0833 1.0000 1.0000
vt -0.0833 1.0000 1.0000
vt 0.2500 1.0000 1.0000
vt 0.4167 1.0000 1.0000
vt 0.5833 1.0000 1.0000
vt 0.5000 1.0000 0.0000
# 16 texture coords

g Cylinder109
usemtl wire_038021002
s 1
f 99/113/63 100/114/63 101/115/63 
f 99/113/63 102/116/63 100/117/63 
f 99/113/63 103/118/63 102/116/63 
f 99/113/63 104/119/63 103/118/63 
f 99/113/63 105/120/63 104/119/63 
f 99/113/63 101/115/63 105/120/63 
s 8
f 101/115/64 106/121/65 107/122/64 
f 101/115/64 100/114/65 106/121/65 
f 100/117/65 108/123/66 106/124/65 
f 100/117/65 102/116/66 108/123/66 
f 102/116/66 109/125/67 108/123/66 
f 102/116/66 103/118/67 109/125/67 
f 103/118/67 110/126/68 109/125/67 
f 103/118/67 104/119/68 110/126/68 
f 104/119/68 111/127/69 110/126/68 
f 104/119/68 105/120/69 111/127/69 
f 105/120/69 107/122/64 111/127/69 
f 105/120/69 101/115/64 107/122/64 
s 1
f 112/128/70 107/122/70 106/121/70 
f 112/128/70 106/124/70 108/123/70 
f 112/128/70 108/123/70 109/125/70 
f 112/128/70 109/125/70 110/126/70 
f 112/128/70 110/126/70 111/127/70 
f 112/128/70 111/127/70 107/122/70 
# 24 faces

#
# object Cylinder103
#

v  5.5000 5.3104 -4.9713
v  5.5000 5.4604 -5.2312
v  5.5000 5.6104 -4.9713
v  5.5000 5.1604 -5.2312
v  5.5000 5.0104 -4.9713
v  5.5000 5.1604 -4.7115
v  5.5000 5.4604 -4.7115
v  -5.5000 5.4604 -5.2312
v  -5.5000 5.6104 -4.9713
v  -5.5000 5.1604 -5.2312
v  -5.5000 5.0104 -4.9713
v  -5.5000 5.1604 -4.7115
v  -5.5000 5.4604 -4.7115
v  -5.5000 5.3104 -4.9713
# 14 vertices

vn 1.0000 0.0000 -0.0000
vn -0.0000 1.0000 0.0000
vn -0.0000 0.5000 -0.8660
vn 0.0000 -0.5000 -0.8660
vn 0.0000 -1.0000 0.0000
vn 0.0000 -0.5000 0.8660
vn -0.0000 0.5000 0.8660
vn -1.0000 -0.0000 -0.0000
# 8 vertex normals

vt 0.5000 0.0000 0.0000
vt 0.9167 0.0000 1.0000
vt 0.7500 0.0000 1.0000
vt 0.0833 0.0000 1.0000
vt -0.0833 0.0000 1.0000
vt 0.2500 0.0000 1.0000
vt 0.4167 0.0000 1.0000
vt 0.5833 0.0000 1.0000
vt 0.9167 1.0000 1.0000
vt 0.7500 1.0000 1.0000
vt 0.0833 1.0000 1.0000
vt -0.0833 1.0000 1.0000
vt 0.2500 1.0000 1.0000
vt 0.4167 1.0000 1.0000
vt 0.5833 1.0000 1.0000
vt 0.5000 1.0000 0.0000
# 16 texture coords

g Cylinder103
usemtl wire_038021002
s 1
f 113/129/71 114/130/71 115/131/71 
f 113/129/71 116/132/71 114/133/71 
f 113/129/71 117/134/71 116/132/71 
f 113/129/71 118/135/71 117/134/71 
f 113/129/71 119/136/71 118/135/71 
f 113/129/71 115/131/71 119/136/71 
s 8
f 115/131/72 120/137/73 121/138/72 
f 115/131/72 114/130/73 120/137/73 
f 114/133/73 122/139/74 120/140/73 
f 114/133/73 116/132/74 122/139/74 
f 116/132/74 123/141/75 122/139/74 
f 116/132/74 117/134/75 123/141/75 
f 117/134/75 124/142/76 123/141/75 
f 117/134/75 118/135/76 124/142/76 
f 118/135/76 125/143/77 124/142/76 
f 118/135/76 119/136/77 125/143/77 
f 119/136/77 121/138/72 125/143/77 
f 119/136/77 115/131/72 121/138/72 
s 1
f 126/144/78 121/138/78 120/137/78 
f 126/144/78 120/140/78 122/139/78 
f 126/144/78 122/139/78 123/141/78 
f 126/144/78 123/141/78 124/142/78 
f 126/144/78 124/142/78 125/143/78 
f 126/144/78 125/143/78 121/138/78 
# 24 faces

#
# object Cylinder099
#

v  4.4815 0.0000 4.5000
v  4.6315 0.0000 4.2402
v  4.7815 0.0000 4.5000
v  4.3315 0.0000 4.2402
v  4.1815 0.0000 4.5000
v  4.3315 0.0000 4.7598
v  4.6315 0.0000 4.7598
v  4.6315 10.0000 4.2402
v  4.7815 10.0000 4.5000
v  4.3315 10.0000 4.2402
v  4.1815 10.0000 4.5000
v  4.3315 10.0000 4.7598
v  4.6315 10.0000 4.7598
v  4.4815 10.0000 4.5000
# 14 vertices

vn 0.0000 -1.0000 -0.0000
vn 1.0000 0.0000 0.0000
vn 0.5000 0.0000 -0.8660
vn 1.0000 0.0000 -0.0000
vn -0.5000 0.0000 -0.8660
vn -1.0000 0.0000 0.0000
vn -1.0000 0.0000 -0.0000
vn -0.5000 0.0000 0.8660
vn 0.5000 0.0000 0.8660
vn 0.0000 1.0000 -0.0000
# 10 vertex normals

vt 0.5000 0.0000 0.0000
vt 0.9167 0.0000 1.0000
vt 0.7500 0.0000 1.0000
vt 0.0833 0.0000 1.0000
vt -0.0833 0.0000 1.0000
vt 0.2500 0.0000 1.0000
vt 0.4167 0.0000 1.0000
vt 0.5833 0.0000 1.0000
vt 0.9167 1.0000 1.0000
vt 0.7500 1.0000 1.0000
vt 0.0833 1.0000 1.0000
vt -0.0833 1.0000 1.0000
vt 0.2500 1.0000 1.0000
vt 0.4167 1.0000 1.0000
vt 0.5833 1.0000 1.0000
vt 0.5000 1.0000 0.0000
# 16 texture coords

g Cylinder099
usemtl wire_038021002
s 1
f 127/145/79 128/146/79 129/147/79 
f 127/145/79 130/148/79 128/149/79 
f 127/145/79 131/150/79 130/148/79 
f 127/145/79 132/151/79 131/150/79 
f 127/145/79 133/152/79 132/151/79 
f 127/145/79 129/147/79 133/152/79 
s 8
f 129/147/80 134/153/81 135/154/82 
f 129/147/80 128/146/81 134/153/81 
f 128/149/81 136/155/83 134/156/81 
f 128/149/81 130/148/83 136/155/83 
f 130/148/83 137/157/84 136/155/83 
f 130/148/83 131/150/85 137/157/84 
f 131/150/85 138/158/86 137/157/84 
f 131/150/85 132/151/86 138/158/86 
f 132/151/86 139/159/87 138/158/86 
f 132/151/86 133/152/87 139/159/87 
f 133/152/87 135/154/82 139/159/87 
f 133/152/87 129/147/80 135/154/82 
s 1
f 140/160/88 135/154/88 134/153/88 
f 140/160/88 134/156/88 136/155/88 
f 140/160/88 136/155/88 137/157/88 
f 140/160/88 137/157/88 138/158/88 
f 140/160/88 138/158/88 139/159/88 
f 140/160/88 139/159/88 135/154/88 
# 24 faces

#
# object Cylinder113
#

v  -4.9821 0.4220 4.8070
v  -4.7223 0.5629 4.8583
v  -4.9821 0.7039 4.9096
v  -4.7223 0.2810 4.7557
v  -4.9821 0.1401 4.7044
v  -5.2419 0.2810 4.7557
v  -5.2419 0.5629 4.8583
v  -4.7223 4.3252 -5.4783
v  -4.9821 4.4661 -5.4270
v  -4.7223 4.0433 -5.5809
v  -4.9821 3.9023 -5.6322
v  -5.2419 4.0433 -5.5809
v  -5.2419 4.3252 -5.4783
v  -4.9821 4.1842 -5.5296
# 14 vertices

vn -0.0000 -0.3420 0.9397
vn -0.0000 0.9397 0.3420
vn 0.8660 0.4698 0.1710
vn 0.8660 -0.4698 -0.1710
vn -0.0000 -0.9397 -0.3420
vn -0.8660 -0.4698 -0.1710
vn -0.8660 0.4698 0.1710
vn 0.0000 0.3420 -0.9397
# 8 vertex normals

vt 0.5000 0.0000 0.0000
vt 0.9167 0.0000 1.0000
vt 0.7500 0.0000 1.0000
vt 0.0833 0.0000 1.0000
vt -0.0833 0.0000 1.0000
vt 0.2500 0.0000 1.0000
vt 0.4167 0.0000 1.0000
vt 0.5833 0.0000 1.0000
vt 0.9167 1.0000 1.0000
vt 0.7500 1.0000 1.0000
vt 0.0833 1.0000 1.0000
vt -0.0833 1.0000 1.0000
vt 0.2500 1.0000 1.0000
vt 0.4167 1.0000 1.0000
vt 0.5833 1.0000 1.0000
vt 0.5000 1.0000 0.0000
# 16 texture coords

g Cylinder113
usemtl wire_038021002
s 1
f 141/161/89 142/162/89 143/163/89 
f 141/161/89 144/164/89 142/165/89 
f 141/161/89 145/166/89 144/164/89 
f 141/161/89 146/167/89 145/166/89 
f 141/161/89 147/168/89 146/167/89 
f 141/161/89 143/163/89 147/168/89 
s 8
f 143/163/90 148/169/91 149/170/90 
f 143/163/90 142/162/91 148/169/91 
f 142/165/91 150/171/92 148/172/91 
f 142/165/91 144/164/92 150/171/92 
f 144/164/92 151/173/93 150/171/92 
f 144/164/92 145/166/93 151/173/93 
f 145/166/93 152/174/94 151/173/93 
f 145/166/93 146/167/94 152/174/94 
f 146/167/94 153/175/95 152/174/94 
f 146/167/94 147/168/95 153/175/95 
f 147/168/95 149/170/90 153/175/95 
f 147/168/95 143/163/90 149/170/90 
s 1
f 154/176/96 149/170/96 148/169/96 
f 154/176/96 148/172/96 150/171/96 
f 154/176/96 150/171/96 151/173/96 
f 154/176/96 151/173/96 152/174/96 
f 154/176/96 152/174/96 153/175/96 
f 154/176/96 153/175/96 149/170/96 
# 24 faces

