# 3ds Max Wavefront OBJ Exporter v0.97b - (c)2007 guruware
# File Created: 07.07.2014 18:06:44

mtllib Dude.mtl

#
# object Dude
#

v  -0.5000 0.0000 0.5000
v  -0.5000 0.0000 -0.5000
v  0.5000 0.0000 -0.5000
v  0.5000 0.0000 0.5000
v  -0.5000 2.0000 0.5000
v  0.5000 2.0000 0.5000
v  0.5000 2.0000 -0.5000
v  -0.5000 2.0000 -0.5000
v  0.3586 1.1969 0.3586
v  -0.3586 1.1969 0.3586
v  -0.3586 1.0394 0.3586
v  0.3586 1.0394 0.3586
v  0.3586 1.1969 -0.3586
v  0.3586 1.0394 -0.3586
v  -0.3586 1.1969 -0.3586
v  -0.3586 1.0394 -0.3586
v  -0.5000 1.1969 0.5000
v  0.5000 1.1969 0.5000
v  0.5000 1.0394 0.5000
v  -0.5000 1.0394 0.5000
v  0.5000 1.1969 -0.5000
v  0.5000 1.0394 -0.5000
v  -0.5000 1.1969 -0.5000
v  -0.5000 1.0394 -0.5000
# 24 vertices

vn 0.0000 -1.0000 -0.0000
vn 0.0000 1.0000 -0.0000
vn 0.0000 0.0000 1.0000
vn 1.0000 0.0000 -0.0000
vn 0.0000 0.0000 -1.0000
vn -1.0000 0.0000 -0.0000
vn -0.0000 -1.0000 -0.0000
vn -0.0000 -1.0000 0.0000
vn 0.0000 -1.0000 0.0000
vn 0.0000 1.0000 0.0000
vn -0.0000 1.0000 -0.0000
# 11 vertex normals

vt 1.0000 0.0000 0.0000
vt 1.0000 1.0000 0.0000
vt 0.0000 1.0000 0.0000
vt 0.0000 0.0000 0.0000
vt 1.0000 0.5984 0.0000
vt 0.0000 0.5984 0.0000
vt 0.0000 0.5197 0.0000
vt 1.0000 0.5197 0.0000
# 8 texture coords

g Dude
usemtl wire_008061138
s 2
f 1/1/1 2/2/1 3/3/1 
f 3/3/1 4/4/1 1/1/1 
s 4
f 5/4/2 6/1/2 7/2/2 
f 7/2/2 8/3/2 5/4/2 
s 8
f 9/5/3 10/6/3 11/7/3 
f 11/7/3 12/8/3 9/5/3 
s 16
f 13/5/4 9/6/4 12/7/4 
f 12/7/4 14/8/4 13/5/4 
s 32
f 15/5/5 13/6/5 14/7/5 
f 14/7/5 16/8/5 15/5/5 
s 64
f 10/5/6 15/6/6 16/7/6 
f 16/7/6 11/8/6 10/5/6 
s 8
f 6/2/3 5/3/3 17/6/3 
f 17/6/3 18/5/3 6/2/3 
f 1/4/3 4/1/3 19/8/3 
f 19/8/3 20/7/3 1/4/3 
s 16
f 7/2/4 6/3/4 18/6/4 
f 18/6/4 21/5/4 7/2/4 
f 4/4/4 3/1/4 22/8/4 
f 22/8/4 19/7/4 4/4/4 
s 32
f 8/2/5 7/3/5 21/6/5 
f 21/6/5 23/5/5 8/2/5 
f 3/4/5 2/1/5 24/8/5 
f 24/8/5 22/7/5 3/4/5 
s 64
f 5/2/6 8/3/6 23/6/6 
f 23/6/6 17/5/6 5/2/6 
f 2/4/6 1/1/6 20/8/6 
f 20/8/6 24/7/6 2/4/6 
s off
f 18/5/7 17/6/7 10/6/7 
f 10/6/8 9/5/8 18/5/8 
f 17/5/8 23/6/8 15/6/8 
f 15/6/9 10/5/9 17/5/9 
f 23/5/1 21/6/1 13/6/1 
f 13/6/1 15/5/1 23/5/1 
f 21/5/1 18/6/1 9/6/1 
f 9/6/1 13/5/1 21/5/1 
f 20/7/2 19/8/2 12/8/2 
f 12/8/10 11/7/10 20/7/10 
f 19/7/2 22/8/2 14/8/2 
f 14/8/2 12/7/2 19/7/2 
f 22/7/2 24/8/2 16/8/2 
f 16/8/2 14/7/2 22/7/2 
f 24/7/11 20/8/11 11/8/11 
f 11/8/2 16/7/2 24/7/2 
# 44 faces

