# 3ds Max Wavefront OBJ Exporter v0.97b - (c)2007 guruware
# File Created: 16.08.2014 17:06:35

mtllib Farm2.mtl

#
# object Box703
#

v  -3.0507 3.6452 -3.6916
v  -3.0507 4.1469 -2.6766
v  -3.0507 5.4769 -3.7926
v  -3.0507 4.5645 -4.4629
v  -2.8507 5.4769 -3.7926
v  -2.8507 4.1469 -2.6766
v  -2.8507 3.6452 -3.6916
v  -2.8507 4.5645 -4.4629
v  -3.0507 7.7784 -0.6327
v  -3.0507 6.8591 0.1386
v  -2.8507 6.8591 0.1386
v  -2.8507 7.7784 -0.6327
# 12 vertices

vn -1.0000 0.0000 -0.0000
vn 1.0000 -0.0000 0.0000
vn 0.0000 0.7086 -0.7056
vn 0.0000 0.5921 -0.8059
vn -0.0000 0.6428 0.7660
vn -0.0000 -0.8180 0.5753
vn -0.0000 -0.7202 0.6938
vn 0.0000 -0.6428 -0.7660
vn 0.0000 0.8083 -0.5887
vn -0.0000 -0.8965 0.4431
# 10 vertex normals

vt 1.0000 1.0000 0.0000
vt 0.7800 1.0000 0.0000
vt 0.7800 0.0000 0.0000
vt 1.0000 0.0000 0.0000
vt 0.2200 0.0000 0.0000
vt 0.2200 1.0000 0.0000
vt 0.0000 1.0000 0.0000
vt 0.0000 0.0000 0.0000
# 8 texture coords

g Box703
usemtl wire_115115115
s 2
f 1/1/1 2/2/1 3/3/1 
f 3/3/1 4/4/1 1/1/1 
s 4
f 5/5/2 6/6/2 7/7/2 
f 7/7/2 8/8/2 5/5/2 
s 8
f 3/5/3 5/6/3 8/7/4 
f 8/7/4 4/8/4 3/5/3 
s 16
f 9/8/5 10/4/5 11/1/5 
f 11/1/5 12/7/5 9/8/5 
s 32
f 2/3/6 6/2/6 11/7/7 
f 11/7/7 10/8/7 2/3/6 
s 64
f 1/8/8 4/4/8 8/1/8 
f 8/1/8 7/7/8 1/8/8 
s 2
f 10/7/1 9/8/1 3/3/1 
f 3/3/1 2/2/1 10/7/1 
s 4
f 12/4/2 11/1/2 6/6/2 
f 6/6/2 5/5/2 12/4/2 
s 8
f 9/4/9 12/1/9 5/6/3 
f 5/6/3 3/5/3 9/4/9 
s 32
f 1/4/10 7/1/10 6/2/6 
f 6/2/6 2/3/6 1/4/10 
# 20 faces

#
# object Box707
#

v  -3.0507 12.6635 -1.5151
v  -3.0507 11.5337 -1.5881
v  -3.0507 11.8351 0.1217
v  -3.0507 12.8719 -0.3334
v  -2.8507 11.8351 0.1217
v  -2.8507 11.5337 -1.5881
v  -2.8507 12.6635 -1.5151
v  -2.8507 12.8719 -0.3334
v  -3.0507 7.9478 0.5349
v  -3.0507 7.7395 -0.6469
v  -2.8507 7.7395 -0.6469
v  -2.8507 7.9478 0.5349
# 12 vertices

vn -1.0000 0.0000 -0.0000
vn 1.0000 -0.0000 0.0000
vn 0.0000 0.2568 0.9665
vn 0.0000 0.4019 0.9157
vn -0.0000 -0.9848 0.1736
vn -0.0000 -0.0892 -0.9960
vn -0.0000 -0.2408 -0.9706
vn 0.0000 0.9848 -0.1736
vn -0.0000 0.1057 0.9944
vn 0.0000 0.1057 0.9944
vn -0.0000 0.0645 -0.9979
vn 0.0000 0.0645 -0.9979
# 12 vertex normals

vt 1.0000 1.0000 0.0000
vt 0.7800 1.0000 0.0000
vt 0.7800 0.0000 0.0000
vt 1.0000 0.0000 0.0000
vt 0.2200 0.0000 0.0000
vt 0.2200 1.0000 0.0000
vt 0.0000 1.0000 0.0000
vt 0.0000 0.0000 0.0000
# 8 texture coords

g Box707
usemtl wire_115115115
s 2
f 13/9/11 14/10/11 15/11/11 
f 15/11/11 16/12/11 13/9/11 
s 4
f 17/13/12 18/14/12 19/15/12 
f 19/15/12 20/16/12 17/13/12 
s 8
f 15/13/13 17/14/13 20/15/14 
f 20/15/14 16/16/14 15/13/13 
s 16
f 21/16/15 22/12/15 23/9/15 
f 23/9/15 24/15/15 21/16/15 
s 32
f 14/11/16 18/10/16 23/15/17 
f 23/15/17 22/16/17 14/11/16 
s 64
f 13/16/18 16/12/18 20/9/18 
f 20/9/18 19/15/18 13/16/18 
s 2
f 22/15/11 21/16/11 15/11/11 
f 15/11/11 14/10/11 22/15/11 
s 4
f 24/12/12 23/9/12 18/14/12 
f 18/14/12 17/13/12 24/12/12 
s 8
f 21/12/19 24/9/20 17/14/13 
f 17/14/13 15/13/13 21/12/19 
s 32
f 13/12/21 19/9/22 18/10/16 
f 18/10/16 14/11/16 13/12/21 
# 20 faces

#
# object Cylinder043
#

v  -2.2549 7.4594 -0.0000
v  -2.2549 7.8425 -0.3214
v  -2.2549 7.9594 -0.0000
v  -2.2549 7.5463 -0.4924
v  -2.2549 7.2094 -0.4330
v  -2.2549 6.9896 -0.1710
v  -2.2549 6.9896 0.1710
v  -2.2549 7.2094 0.4330
v  -2.2549 7.5463 0.4924
v  -2.2549 7.8425 0.3214
v  -3.7549 7.8425 -0.3214
v  -3.7549 7.9594 -0.0000
v  -3.7549 7.5463 -0.4924
v  -3.7549 7.2094 -0.4330
v  -3.7549 6.9896 -0.1710
v  -3.7549 6.9896 0.1710
v  -3.7549 7.2094 0.4330
v  -3.7549 7.5463 0.4924
v  -3.7549 7.8425 0.3214
v  -3.7549 7.4594 -0.0000
# 20 vertices

vn 1.0000 0.0000 -0.0000
vn -0.0000 1.0000 0.0000
vn -0.0000 0.7660 -0.6428
vn -0.0000 0.1736 -0.9848
vn 0.0000 -0.5000 -0.8660
vn 0.0000 -0.9397 -0.3420
vn 0.0000 -0.9397 0.3420
vn 0.0000 -0.5000 0.8660
vn -0.0000 0.1736 0.9848
vn -0.0000 0.7660 0.6428
vn -1.0000 -0.0000 -0.0000
# 11 vertex normals

vt 0.5000 0.0000 0.0000
vt 0.8611 0.0000 1.0000
vt 0.7500 0.0000 1.0000
vt 0.9722 0.0000 1.0000
vt 0.0833 0.0000 1.0000
vt -0.0278 0.0000 1.0000
vt 0.1944 0.0000 1.0000
vt 0.3056 0.0000 1.0000
vt 0.4167 0.0000 1.0000
vt 0.5278 0.0000 1.0000
vt 0.6389 0.0000 1.0000
vt 0.8611 1.0000 1.0000
vt 0.7500 1.0000 1.0000
vt 0.9722 1.0000 1.0000
vt 0.0833 1.0000 1.0000
vt -0.0278 1.0000 1.0000
vt 0.1944 1.0000 1.0000
vt 0.3056 1.0000 1.0000
vt 0.4167 1.0000 1.0000
vt 0.5278 1.0000 1.0000
vt 0.6389 1.0000 1.0000
vt 0.5000 1.0000 0.0000
# 22 texture coords

g Cylinder043
usemtl wire_115115115
s 1
f 25/17/23 26/18/23 27/19/23 
f 25/17/23 28/20/23 26/18/23 
f 25/17/23 29/21/23 28/22/23 
f 25/17/23 30/23/23 29/21/23 
f 25/17/23 31/24/23 30/23/23 
f 25/17/23 32/25/23 31/24/23 
f 25/17/23 33/26/23 32/25/23 
f 25/17/23 34/27/23 33/26/23 
f 25/17/23 27/19/23 34/27/23 
s 8
f 27/19/24 35/28/25 36/29/24 
f 27/19/24 26/18/25 35/28/25 
f 26/18/25 37/30/26 35/28/25 
f 26/18/25 28/20/26 37/30/26 
f 28/22/26 38/31/27 37/32/26 
f 28/22/26 29/21/27 38/31/27 
f 29/21/27 39/33/28 38/31/27 
f 29/21/27 30/23/28 39/33/28 
f 30/23/28 40/34/29 39/33/28 
f 30/23/28 31/24/29 40/34/29 
f 31/24/29 41/35/30 40/34/29 
f 31/24/29 32/25/30 41/35/30 
f 32/25/30 42/36/31 41/35/30 
f 32/25/30 33/26/31 42/36/31 
f 33/26/31 43/37/32 42/36/31 
f 33/26/31 34/27/32 43/37/32 
f 34/27/32 36/29/24 43/37/32 
f 34/27/32 27/19/24 36/29/24 
s 1
f 44/38/33 36/29/33 35/28/33 
f 44/38/33 35/28/33 37/30/33 
f 44/38/33 37/32/33 38/31/33 
f 44/38/33 38/31/33 39/33/33 
f 44/38/33 39/33/33 40/34/33 
f 44/38/33 40/34/33 41/35/33 
f 44/38/33 41/35/33 42/36/33 
f 44/38/33 42/36/33 43/37/33 
f 44/38/33 43/37/33 36/29/33 
# 36 faces

#
# object Cylinder042
#

v  2.5000 0.0000 -0.0000
v  1.9151 0.0000 -1.6070
v  1.9151 9.0000 -1.6070
v  2.5000 9.0000 -0.0000
v  0.4341 0.0000 -2.4620
v  0.4341 9.0000 -2.4620
v  -1.2500 0.0000 -2.1651
v  -1.2500 9.0000 -2.1651
v  -2.3492 0.0000 -0.8551
v  -2.3492 9.0000 -0.8551
v  -2.3492 0.0000 0.8551
v  -2.3492 9.0000 0.8551
v  -1.2500 0.0000 2.1651
v  -1.2500 9.0000 2.1651
v  0.4341 0.0000 2.4620
v  0.4341 9.0000 2.4620
v  1.9151 0.0000 1.6070
v  1.9151 9.0000 1.6070
# 18 vertices

vn 0.9397 0.0000 -0.3420
vn 0.5000 0.0000 -0.8660
vn -0.1736 0.0000 -0.9848
vn -0.7660 0.0000 -0.6428
vn -1.0000 0.0000 0.0000
vn -0.7660 0.0000 0.6428
vn -0.1736 0.0000 0.9848
vn 0.5000 0.0000 0.8660
vn 0.9397 0.0000 0.3420
vn 0.0000 -1.0000 -0.0000
vn 0.0000 1.0000 -0.0000
# 11 vertex normals

vt 0.7500 0.0000 1.0000
vt 0.8611 0.0000 1.0000
vt 0.8611 1.0000 1.0000
vt 0.7500 1.0000 1.0000
vt 0.9722 0.0000 1.0000
vt 0.9722 1.0000 1.0000
vt 1.0833 0.0000 1.0000
vt 1.0833 1.0000 1.0000
vt 0.0833 0.0000 1.0000
vt 0.1944 0.0000 1.0000
vt 0.1944 1.0000 1.0000
vt 0.0833 1.0000 1.0000
vt 0.3056 0.0000 1.0000
vt 0.3056 1.0000 1.0000
vt 0.4167 0.0000 1.0000
vt 0.4167 1.0000 1.0000
vt 0.5278 0.0000 1.0000
vt 0.5278 1.0000 1.0000
vt 0.6389 0.0000 1.0000
vt 0.6389 1.0000 1.0000
vt 0.9924 0.5868 -0.2500
vt 0.9330 0.2500 -0.2500
vt 0.6710 0.0302 -0.2500
vt 0.3290 0.0302 -0.2500
vt 0.0670 0.2500 -0.2500
vt 0.0076 0.5868 -0.2500
vt 0.1786 0.8830 -0.2500
vt 0.5000 1.0000 -0.2500
vt 0.8214 0.8830 -0.2500
vt 0.1786 0.8830 0.2500
vt 0.0076 0.5868 0.2500
vt 0.0670 0.2500 0.2500
vt 0.3290 0.0302 0.2500
vt 0.6710 0.0302 0.2500
vt 0.9330 0.2500 0.2500
vt 0.9924 0.5868 0.2500
vt 0.8214 0.8830 0.2500
vt 0.5000 1.0000 0.2500
# 38 texture coords

g Cylinder042
usemtl wire_115115115
s off
f 45/39/34 46/40/34 47/41/34 
f 47/41/34 48/42/34 45/39/34 
f 46/40/35 49/43/35 50/44/35 
f 50/44/35 47/41/35 46/40/35 
f 49/43/36 51/45/36 52/46/36 
f 52/46/36 50/44/36 49/43/36 
f 51/47/37 53/48/37 54/49/37 
f 54/49/37 52/50/37 51/47/37 
f 53/48/38 55/51/38 56/52/38 
f 56/52/38 54/49/38 53/48/38 
f 55/51/39 57/53/39 58/54/39 
f 58/54/39 56/52/39 55/51/39 
f 57/53/40 59/55/40 60/56/40 
f 60/56/40 58/54/40 57/53/40 
f 59/55/41 61/57/41 62/58/41 
f 62/58/41 60/56/41 59/55/41 
f 61/57/42 45/39/42 48/42/42 
f 48/42/42 62/58/42 61/57/42 
f 59/59/43 57/60/43 55/61/43 
f 55/61/43 53/62/43 51/63/43 
f 51/63/43 49/64/43 46/65/43 
f 55/61/43 51/63/43 46/65/43 
f 59/59/43 55/61/43 46/65/43 
f 59/59/43 46/65/43 45/66/43 
f 61/67/43 59/59/43 45/66/43 
f 47/68/44 50/69/44 52/70/44 
f 52/70/44 54/71/44 56/72/44 
f 56/72/44 58/73/44 60/74/44 
f 52/70/44 56/72/44 60/74/44 
f 47/68/44 52/70/44 60/74/44 
f 47/68/44 60/74/44 62/75/44 
f 48/76/44 47/68/44 62/75/44 
# 32 faces

#
# object Box706
#

v  -3.0507 11.4069 3.6916
v  -3.0507 10.9052 2.6766
v  -3.0507 9.5752 3.7926
v  -3.0507 10.4877 4.4629
v  -2.8507 9.5752 3.7926
v  -2.8507 10.9052 2.6766
v  -2.8507 11.4069 3.6916
v  -2.8507 10.4877 4.4629
v  -3.0507 7.2737 0.6327
v  -3.0507 8.1930 -0.1386
v  -2.8507 8.1930 -0.1386
v  -2.8507 7.2737 0.6327
# 12 vertices

vn -1.0000 -0.0000 -0.0000
vn 1.0000 0.0000 0.0000
vn 0.0000 -0.7086 0.7056
vn 0.0000 -0.5921 0.8059
vn 0.0000 -0.6428 -0.7660
vn -0.0000 0.8180 -0.5753
vn -0.0000 0.7202 -0.6938
vn -0.0000 0.6428 0.7660
vn 0.0000 -0.8083 0.5887
vn -0.0000 0.8965 -0.4431
# 10 vertex normals

vt 1.0000 1.0000 0.0000
vt 0.7800 1.0000 0.0000
vt 0.7800 0.0000 0.0000
vt 1.0000 0.0000 0.0000
vt 0.2200 0.0000 0.0000
vt 0.2200 1.0000 0.0000
vt 0.0000 1.0000 0.0000
vt 0.0000 0.0000 0.0000
# 8 texture coords

g Box706
usemtl wire_115115115
s 2
f 63/77/45 64/78/45 65/79/45 
f 65/79/45 66/80/45 63/77/45 
s 4
f 67/81/46 68/82/46 69/83/46 
f 69/83/46 70/84/46 67/81/46 
s 8
f 65/81/47 67/82/47 70/83/48 
f 70/83/48 66/84/48 65/81/47 
s 16
f 71/84/49 72/80/49 73/77/49 
f 73/77/49 74/83/49 71/84/49 
s 32
f 64/79/50 68/78/50 73/83/51 
f 73/83/51 72/84/51 64/79/50 
s 64
f 63/84/52 66/80/52 70/77/52 
f 70/77/52 69/83/52 63/84/52 
s 2
f 72/83/45 71/84/45 65/79/45 
f 65/79/45 64/78/45 72/83/45 
s 4
f 74/80/46 73/77/46 68/82/46 
f 68/82/46 67/81/46 74/80/46 
s 8
f 71/80/53 74/77/53 67/82/47 
f 67/82/47 65/81/47 71/80/53 
s 32
f 63/80/54 69/77/54 68/78/50 
f 68/78/50 64/79/50 63/80/54 
# 20 faces

#
# object Box705
#

v  -3.0507 6.2695 5.2067
v  -3.0507 6.8976 4.2647
v  -3.0507 5.2662 3.6709
v  -3.0507 5.1418 4.7963
v  -2.8507 5.2662 3.6709
v  -2.8507 6.8976 4.2647
v  -2.8507 6.2695 5.2067
v  -2.8507 5.1418 4.7963
v  -3.0507 6.8519 0.0978
v  -3.0507 7.9796 0.5083
v  -2.8507 7.9796 0.5083
v  -2.8507 6.8519 0.0978
# 12 vertices

vn -1.0000 -0.0000 -0.0000
vn 1.0000 0.0000 0.0000
vn 0.0000 -0.9654 -0.2608
vn 0.0000 -0.9940 -0.1098
vn 0.0000 0.3420 -0.9397
vn -0.0000 0.9072 0.4208
vn -0.0000 0.9609 0.2768
vn -0.0000 -0.3420 0.9397
vn 0.0000 -0.9140 -0.4057
vn -0.0000 0.8320 0.5548
# 10 vertex normals

vt 1.0000 1.0000 0.0000
vt 0.7800 1.0000 0.0000
vt 0.7800 0.0000 0.0000
vt 1.0000 0.0000 0.0000
vt 0.2200 0.0000 0.0000
vt 0.2200 1.0000 0.0000
vt 0.0000 1.0000 0.0000
vt 0.0000 0.0000 0.0000
# 8 texture coords

g Box705
usemtl wire_115115115
s 2
f 75/85/55 76/86/55 77/87/55 
f 77/87/55 78/88/55 75/85/55 
s 4
f 79/89/56 80/90/56 81/91/56 
f 81/91/56 82/92/56 79/89/56 
s 8
f 77/89/57 79/90/57 82/91/58 
f 82/91/58 78/92/58 77/89/57 
s 16
f 83/92/59 84/88/59 85/85/59 
f 85/85/59 86/91/59 83/92/59 
s 32
f 76/87/60 80/86/60 85/91/61 
f 85/91/61 84/92/61 76/87/60 
s 64
f 75/92/62 78/88/62 82/85/62 
f 82/85/62 81/91/62 75/92/62 
s 2
f 84/91/55 83/92/55 77/87/55 
f 77/87/55 76/86/55 84/91/55 
s 4
f 86/88/56 85/85/56 80/90/56 
f 80/90/56 79/89/56 86/88/56 
s 8
f 83/88/63 86/85/63 79/90/57 
f 79/90/57 77/89/57 83/88/63 
s 32
f 75/88/64 81/85/64 80/86/60 
f 80/86/60 76/87/60 75/88/64 
# 20 faces

#
# object Box704
#

v  -3.0507 2.3886 1.5151
v  -3.0507 3.5185 1.5881
v  -3.0507 3.2170 -0.1217
v  -3.0507 2.1802 0.3334
v  -2.8507 3.2170 -0.1217
v  -2.8507 3.5185 1.5881
v  -2.8507 2.3886 1.5151
v  -2.8507 2.1802 0.3334
v  -3.0507 7.1043 -0.5349
v  -3.0507 7.3127 0.6469
v  -2.8507 7.3127 0.6469
v  -2.8507 7.1043 -0.5349
# 12 vertices

vn -1.0000 -0.0000 -0.0000
vn 1.0000 0.0000 0.0000
vn 0.0000 -0.2568 -0.9665
vn 0.0000 -0.4019 -0.9157
vn 0.0000 0.9848 -0.1736
vn -0.0000 0.0892 0.9960
vn -0.0000 0.2408 0.9706
vn -0.0000 -0.9848 0.1736
vn 0.0000 -0.1057 -0.9944
vn -0.0000 -0.0645 0.9979
# 10 vertex normals

vt 1.0000 1.0000 0.0000
vt 0.7800 1.0000 0.0000
vt 0.7800 0.0000 0.0000
vt 1.0000 0.0000 0.0000
vt 0.2200 0.0000 0.0000
vt 0.2200 1.0000 0.0000
vt 0.0000 1.0000 0.0000
vt 0.0000 0.0000 0.0000
# 8 texture coords

g Box704
usemtl wire_115115115
s 2
f 87/93/65 88/94/65 89/95/65 
f 89/95/65 90/96/65 87/93/65 
s 4
f 91/97/66 92/98/66 93/99/66 
f 93/99/66 94/100/66 91/97/66 
s 8
f 89/97/67 91/98/67 94/99/68 
f 94/99/68 90/100/68 89/97/67 
s 16
f 95/100/69 96/96/69 97/93/69 
f 97/93/69 98/99/69 95/100/69 
s 32
f 88/95/70 92/94/70 97/99/71 
f 97/99/71 96/100/71 88/95/70 
s 64
f 87/100/72 90/96/72 94/93/72 
f 94/93/72 93/99/72 87/100/72 
s 2
f 96/99/65 95/100/65 89/95/65 
f 89/95/65 88/94/65 96/99/65 
s 4
f 98/96/66 97/93/66 92/98/66 
f 92/98/66 91/97/66 98/96/66 
s 8
f 95/96/73 98/93/73 91/98/67 
f 91/98/67 89/97/67 95/96/73 
s 32
f 87/96/74 93/93/74 92/94/70 
f 92/94/70 88/95/70 87/96/74 
# 20 faces

#
# object Box708
#

v  -3.0507 8.7826 -5.2067
v  -3.0507 8.1545 -4.2647
v  -3.0507 9.7860 -3.6709
v  -3.0507 9.9103 -4.7963
v  -2.8507 9.7860 -3.6709
v  -2.8507 8.1545 -4.2647
v  -2.8507 8.7826 -5.2067
v  -2.8507 9.9103 -4.7963
v  -3.0507 8.2002 -0.0978
v  -3.0507 7.0725 -0.5083
v  -2.8507 7.0725 -0.5083
v  -2.8507 8.2002 -0.0978
# 12 vertices

vn -1.0000 0.0000 -0.0000
vn 1.0000 -0.0000 0.0000
vn 0.0000 0.9654 0.2608
vn 0.0000 0.9940 0.1098
vn -0.0000 -0.3420 0.9397
vn -0.0000 -0.9072 -0.4208
vn -0.0000 -0.9609 -0.2768
vn 0.0000 0.3420 -0.9397
vn 0.0000 0.9140 0.4057
vn -0.0000 -0.8320 -0.5548
# 10 vertex normals

vt 1.0000 1.0000 0.0000
vt 0.7800 1.0000 0.0000
vt 0.7800 0.0000 0.0000
vt 1.0000 0.0000 0.0000
vt 0.2200 0.0000 0.0000
vt 0.2200 1.0000 0.0000
vt 0.0000 1.0000 0.0000
vt 0.0000 0.0000 0.0000
# 8 texture coords

g Box708
usemtl wire_115115115
s 2
f 99/101/75 100/102/75 101/103/75 
f 101/103/75 102/104/75 99/101/75 
s 4
f 103/105/76 104/106/76 105/107/76 
f 105/107/76 106/108/76 103/105/76 
s 8
f 101/105/77 103/106/77 106/107/78 
f 106/107/78 102/108/78 101/105/77 
s 16
f 107/108/79 108/104/79 109/101/79 
f 109/101/79 110/107/79 107/108/79 
s 32
f 100/103/80 104/102/80 109/107/81 
f 109/107/81 108/108/81 100/103/80 
s 64
f 99/108/82 102/104/82 106/101/82 
f 106/101/82 105/107/82 99/108/82 
s 2
f 108/107/75 107/108/75 101/103/75 
f 101/103/75 100/102/75 108/107/75 
s 4
f 110/104/76 109/101/76 104/106/76 
f 104/106/76 103/105/76 110/104/76 
s 8
f 107/104/83 110/101/83 103/106/77 
f 103/106/77 101/105/77 107/104/83 
s 32
f 99/104/84 105/101/84 104/102/80 
f 104/102/80 100/103/80 99/104/84 
# 20 faces

#
# object Tilebase109
#

v  -5.0000 -1.0000 5.0000
v  -5.0000 -1.0000 -5.0000
v  5.0000 -1.0000 -5.0000
v  5.0000 -1.0000 5.0000
v  -5.0000 0.0000 5.0000
v  5.0000 0.0000 5.0000
v  5.0000 0.0000 -5.0000
v  -5.0000 0.0000 -5.0000
# 8 vertices

vn 0.0000 -1.0000 -0.0000
vn 0.0000 1.0000 -0.0000
vn 0.0000 0.0000 1.0000
vn 1.0000 0.0000 -0.0000
vn 0.0000 0.0000 -1.0000
vn -1.0000 0.0000 -0.0000
# 6 vertex normals

vt 1.0000 0.0000 0.0000
vt 1.0000 1.0000 0.0000
vt 0.0000 1.0000 0.0000
vt 0.0000 0.0000 0.0000
# 4 texture coords

g Tilebase109
usemtl wire_061135006
s 1
f 111/109/85 112/110/85 113/111/85 
f 113/111/85 114/112/85 111/109/85 
f 115/112/86 116/109/86 117/110/86 
f 117/110/86 118/111/86 115/112/86 
f 111/112/87 114/109/87 116/110/87 
f 116/110/87 115/111/87 111/112/87 
f 114/112/88 113/109/88 117/110/88 
f 117/110/88 116/111/88 114/112/88 
f 113/112/89 112/109/89 118/110/89 
f 118/110/89 117/111/89 113/112/89 
f 112/112/90 111/109/90 115/110/90 
f 115/110/90 118/111/90 112/112/90 
# 12 faces

