# 3ds Max Wavefront OBJ Exporter v0.97b - (c)2007 guruware
# File Created: 01.08.2014 14:55:36

mtllib Ore.mtl

#
# object Tilebase100
#

v  -5.000000 -1.000000 5.000000
v  -5.000000 -1.000000 -5.000000
v  5.000000 -1.000000 -5.000000
v  5.000000 -1.000000 5.000000
v  -5.000000 0.000000 5.000000
v  5.000000 0.000000 5.000000
v  5.000000 0.000000 -5.000000
v  -5.000000 0.000000 -5.000000
# 8 vertices

vn 0.000000 -1.000000 -0.000000
vn 0.000000 1.000000 -0.000000
vn 0.000000 0.000000 1.000000
vn 1.000000 0.000000 -0.000000
vn 0.000000 0.000000 -1.000000
vn -1.000000 0.000000 -0.000000
# 6 vertex normals

vt 1.000000 0.000000 0.000000
vt 1.000000 1.000000 0.000000
vt 0.000000 1.000000 0.000000
vt 0.000000 0.000000 0.000000
# 4 texture coords

g Tilebase100
usemtl wire_061135006
f 1/1/1 2/2/1 3/3/1 
f 3/3/1 4/4/1 1/1/1 
f 5/4/2 6/1/2 7/2/2 
f 7/2/2 8/3/2 5/4/2 
f 1/4/3 4/1/3 6/2/3 
f 6/2/3 5/3/3 1/4/3 
f 4/4/4 3/1/4 7/2/4 
f 7/2/4 6/3/4 4/4/4 
f 3/4/5 2/1/5 8/2/5 
f 8/2/5 7/3/5 3/4/5 
f 2/4/6 1/1/6 5/2/6 
f 5/2/6 8/3/6 2/4/6 
# 12 faces

#
# object Plane001
#

v  -1.410832 -0.146223 -0.175816
v  -1.410832 -0.146223 1.366166
v  0.152503 -0.146223 1.366166
v  0.152503 0.291865 -0.175816
v  1.715838 -0.146223 1.366166
v  1.715838 0.291865 -0.175816
v  3.279173 -0.146223 1.366166
v  3.279173 0.291865 -0.175816
v  4.842508 -0.146223 1.366166
v  4.842508 -0.146223 -0.175816
v  0.152503 0.291865 -1.717798
v  -1.410832 -0.146223 -1.717798
v  1.715838 0.291865 -1.717798
v  3.279173 0.291865 -1.717798
v  4.842508 -0.146223 -1.717798
v  0.152503 0.291865 -3.259780
v  -1.410832 -0.146223 -3.259780
v  1.715838 0.291865 -3.259780
v  3.279173 0.291865 -3.259780
v  4.842508 -0.146223 -3.259780
v  0.152503 -0.146223 -4.801762
v  -1.410832 -0.146223 -4.801762
v  1.715838 -0.146223 -4.801762
v  3.279173 -0.146223 -4.801762
v  4.842508 -0.146223 -4.801762
# 25 vertices

vn -0.202902 0.976790 0.068637
vn 0.000000 1.000000 -0.000000
vn -0.068838 0.975974 0.206727
vn -0.133449 0.981787 0.135226
vn 0.000000 0.961931 0.273291
vn 0.000000 0.990437 0.137965
vn 0.068838 0.975974 0.206727
vn 0.133449 0.981787 0.135226
vn 0.202902 0.976790 0.068637
vn -0.136185 0.990683 -0.000000
vn -0.269832 0.962907 -0.000000
vn 0.136185 0.990683 -0.000000
vn 0.269832 0.962907 -0.000000
vn -0.133449 0.981787 -0.135226
vn -0.202902 0.976790 -0.068637
vn 0.000000 0.990437 -0.137965
vn 0.133449 0.981787 -0.135226
vn 0.202902 0.976790 -0.068637
vn -0.068838 0.975974 -0.206727
vn 0.000000 0.961931 -0.273291
vn 0.068838 0.975974 -0.206727
# 21 vertex normals

vt 0.000000 0.250000 0.000000
vt 0.000000 0.000000 0.000000
vt 0.250000 0.000000 0.000000
vt 0.250000 0.250000 0.000000
vt 0.500000 0.000000 0.000000
vt 0.500000 0.250000 0.000000
vt 0.750000 0.000000 0.000000
vt 0.750000 0.250000 0.000000
vt 1.000000 0.000000 0.000000
vt 1.000000 0.250000 0.000000
vt 0.250000 0.500000 0.000000
vt 0.000000 0.500000 0.000000
vt 0.500000 0.500000 0.000000
vt 0.750000 0.500000 0.000000
vt 1.000000 0.500000 0.000000
vt 0.250000 0.750000 0.000000
vt 0.000000 0.750000 0.000000
vt 0.500000 0.750000 0.000000
vt 0.750000 0.750000 0.000000
vt 1.000000 0.750000 0.000000
vt 0.250000 1.000000 0.000000
vt 0.000000 1.000000 0.000000
vt 0.500000 1.000000 0.000000
vt 0.750000 1.000000 0.000000
vt 1.000000 1.000000 0.000000
# 25 texture coords

g Plane001
usemtl oreMaterial
f 9/5/7 10/6/8 11/7/9 
f 11/7/9 12/8/10 9/5/7 
f 11/7/9 13/9/11 14/10/12 
f 14/10/12 12/8/10 11/7/9 
f 13/9/11 15/11/13 16/12/14 
f 16/12/14 14/10/12 13/9/11 
f 15/11/13 17/13/8 18/14/15 
f 18/14/15 16/12/14 15/11/13 
f 9/5/7 12/8/10 19/15/16 
f 19/15/16 20/16/17 9/5/7 
f 12/8/10 14/10/12 21/17/8 
f 21/17/8 19/15/16 12/8/10 
f 14/10/12 16/12/14 22/18/18 
f 22/18/18 21/17/8 14/10/12 
f 16/12/14 18/14/15 23/19/19 
f 23/19/19 22/18/18 16/12/14 
f 20/16/17 19/15/16 24/20/20 
f 24/20/20 25/21/21 20/16/17 
f 19/15/16 21/17/8 26/22/22 
f 26/22/22 24/20/20 19/15/16 
f 21/17/8 22/18/18 27/23/23 
f 27/23/23 26/22/22 21/17/8 
f 22/18/18 23/19/19 28/24/24 
f 28/24/24 27/23/23 22/18/18 
f 25/21/21 24/20/20 29/25/25 
f 29/25/25 30/26/8 25/21/21 
f 24/20/20 26/22/22 31/27/26 
f 31/27/26 29/25/25 24/20/20 
f 26/22/22 27/23/23 32/28/27 
f 32/28/27 31/27/26 26/22/22 
f 32/28/27 27/23/23 28/24/24 
f 28/24/24 33/29/8 32/28/27 
# 32 faces

#
# object Plane002
#

v  -4.442646 -0.069214 -1.785445
v  -4.442646 -0.069214 -1.055556
v  -3.702650 -0.069214 -1.055556
v  -3.702650 0.138153 -1.785445
v  -2.962653 -0.069214 -1.055556
v  -2.962653 0.138153 -1.785445
v  -2.222657 -0.069214 -1.055556
v  -2.222657 0.138153 -1.785445
v  -1.482660 -0.069214 -1.055556
v  -1.482660 -0.069214 -1.785445
v  -3.702650 0.138153 -2.515335
v  -4.442646 -0.069214 -2.515335
v  -2.962653 0.138153 -2.515335
v  -2.222657 0.138153 -2.515335
v  -1.482660 -0.069214 -2.515335
v  -3.702650 0.138153 -3.245224
v  -4.442646 -0.069214 -3.245224
v  -2.962653 0.138153 -3.245224
v  -2.222657 0.138153 -3.245224
v  -1.482660 -0.069214 -3.245224
v  -3.702650 -0.069214 -3.975113
v  -4.442646 -0.069214 -3.975113
v  -2.962653 -0.069214 -3.975113
v  -2.222657 -0.069214 -3.975113
v  -1.482660 -0.069214 -3.975113
# 25 vertices

vn -0.202902 0.976790 0.068637
vn 0.000000 1.000000 -0.000000
vn -0.068838 0.975974 0.206727
vn -0.133449 0.981787 0.135226
vn 0.000000 0.961931 0.273291
vn 0.000000 0.990437 0.137965
vn 0.068838 0.975974 0.206727
vn 0.133449 0.981787 0.135226
vn 0.202902 0.976790 0.068637
vn -0.136185 0.990683 -0.000000
vn -0.269832 0.962907 -0.000000
vn 0.136185 0.990683 -0.000000
vn 0.269832 0.962907 -0.000000
vn -0.133449 0.981787 -0.135226
vn -0.202902 0.976790 -0.068637
vn 0.000000 0.990437 -0.137965
vn 0.133449 0.981787 -0.135226
vn 0.202902 0.976790 -0.068637
vn -0.068838 0.975974 -0.206727
vn 0.000000 0.961931 -0.273291
vn 0.068838 0.975974 -0.206727
# 21 vertex normals

vt 0.000000 0.250000 0.000000
vt 0.000000 0.000000 0.000000
vt 0.250000 0.000000 0.000000
vt 0.250000 0.250000 0.000000
vt 0.500000 0.000000 0.000000
vt 0.500000 0.250000 0.000000
vt 0.750000 0.000000 0.000000
vt 0.750000 0.250000 0.000000
vt 1.000000 0.000000 0.000000
vt 1.000000 0.250000 0.000000
vt 0.250000 0.500000 0.000000
vt 0.000000 0.500000 0.000000
vt 0.500000 0.500000 0.000000
vt 0.750000 0.500000 0.000000
vt 1.000000 0.500000 0.000000
vt 0.250000 0.750000 0.000000
vt 0.000000 0.750000 0.000000
vt 0.500000 0.750000 0.000000
vt 0.750000 0.750000 0.000000
vt 1.000000 0.750000 0.000000
vt 0.250000 1.000000 0.000000
vt 0.000000 1.000000 0.000000
vt 0.500000 1.000000 0.000000
vt 0.750000 1.000000 0.000000
vt 1.000000 1.000000 0.000000
# 25 texture coords

g Plane002
usemtl oreMaterial
f 34/30/28 35/31/29 36/32/30 
f 36/32/30 37/33/31 34/30/28 
f 36/32/30 38/34/32 39/35/33 
f 39/35/33 37/33/31 36/32/30 
f 38/34/32 40/36/34 41/37/35 
f 41/37/35 39/35/33 38/34/32 
f 40/36/34 42/38/29 43/39/36 
f 43/39/36 41/37/35 40/36/34 
f 34/30/28 37/33/31 44/40/37 
f 44/40/37 45/41/38 34/30/28 
f 37/33/31 39/35/33 46/42/29 
f 46/42/29 44/40/37 37/33/31 
f 39/35/33 41/37/35 47/43/39 
f 47/43/39 46/42/29 39/35/33 
f 41/37/35 43/39/36 48/44/40 
f 48/44/40 47/43/39 41/37/35 
f 45/41/38 44/40/37 49/45/41 
f 49/45/41 50/46/42 45/41/38 
f 44/40/37 46/42/29 51/47/43 
f 51/47/43 49/45/41 44/40/37 
f 46/42/29 47/43/39 52/48/44 
f 52/48/44 51/47/43 46/42/29 
f 47/43/39 48/44/40 53/49/45 
f 53/49/45 52/48/44 47/43/39 
f 50/46/42 49/45/41 54/50/46 
f 54/50/46 55/51/29 50/46/42 
f 49/45/41 51/47/43 56/52/47 
f 56/52/47 54/50/46 49/45/41 
f 51/47/43 52/48/44 57/53/48 
f 57/53/48 56/52/47 51/47/43 
f 57/53/48 52/48/44 53/49/45 
f 53/49/45 58/54/29 57/53/48 
# 32 faces

#
# object Plane003
#

v  0.562559 -0.099348 3.844855
v  0.562559 -0.099348 4.892519
v  1.624731 -0.099348 4.892519
v  1.624731 0.198301 3.844855
v  2.686903 -0.099348 4.892519
v  2.686903 0.198301 3.844855
v  3.749076 -0.099348 4.892519
v  3.749076 0.198301 3.844855
v  4.811248 -0.099348 4.892519
v  4.811248 -0.099348 3.844855
v  1.624731 0.198301 2.797190
v  0.562559 -0.099348 2.797190
v  2.686903 0.198301 2.797190
v  3.749076 0.198301 2.797190
v  4.811248 -0.099348 2.797190
v  1.624731 0.198301 1.749526
v  0.562559 -0.099348 1.749526
v  2.686903 0.198301 1.749526
v  3.749076 0.198301 1.749526
v  4.811248 -0.099348 1.749526
v  1.624731 -0.099348 0.701861
v  0.562559 -0.099348 0.701861
v  2.686903 -0.099348 0.701861
v  3.749076 -0.099348 0.701861
v  4.811248 -0.099348 0.701861
# 25 vertices

vn -0.202902 0.976790 0.068637
vn 0.000000 1.000000 -0.000000
vn -0.068838 0.975974 0.206727
vn -0.133449 0.981787 0.135226
vn 0.000000 0.961931 0.273291
vn 0.000000 0.990437 0.137965
vn 0.068838 0.975974 0.206727
vn 0.133449 0.981787 0.135226
vn 0.202902 0.976790 0.068637
vn -0.136185 0.990683 -0.000000
vn -0.269832 0.962907 -0.000000
vn 0.136185 0.990683 -0.000000
vn 0.269832 0.962907 -0.000000
vn -0.133449 0.981787 -0.135226
vn -0.202902 0.976790 -0.068637
vn 0.000000 0.990437 -0.137965
vn 0.133449 0.981787 -0.135226
vn 0.202902 0.976790 -0.068637
vn -0.068838 0.975974 -0.206727
vn 0.000000 0.961931 -0.273291
vn 0.068838 0.975974 -0.206727
# 21 vertex normals

vt 0.000000 0.250000 0.000000
vt 0.000000 0.000000 0.000000
vt 0.250000 0.000000 0.000000
vt 0.250000 0.250000 0.000000
vt 0.500000 0.000000 0.000000
vt 0.500000 0.250000 0.000000
vt 0.750000 0.000000 0.000000
vt 0.750000 0.250000 0.000000
vt 1.000000 0.000000 0.000000
vt 1.000000 0.250000 0.000000
vt 0.250000 0.500000 0.000000
vt 0.000000 0.500000 0.000000
vt 0.500000 0.500000 0.000000
vt 0.750000 0.500000 0.000000
vt 1.000000 0.500000 0.000000
vt 0.250000 0.750000 0.000000
vt 0.000000 0.750000 0.000000
vt 0.500000 0.750000 0.000000
vt 0.750000 0.750000 0.000000
vt 1.000000 0.750000 0.000000
vt 0.250000 1.000000 0.000000
vt 0.000000 1.000000 0.000000
vt 0.500000 1.000000 0.000000
vt 0.750000 1.000000 0.000000
vt 1.000000 1.000000 0.000000
# 25 texture coords

g Plane003
usemtl oreMaterial
f 59/55/49 60/56/50 61/57/51 
f 61/57/51 62/58/52 59/55/49 
f 61/57/51 63/59/53 64/60/54 
f 64/60/54 62/58/52 61/57/51 
f 63/59/53 65/61/55 66/62/56 
f 66/62/56 64/60/54 63/59/53 
f 65/61/55 67/63/50 68/64/57 
f 68/64/57 66/62/56 65/61/55 
f 59/55/49 62/58/52 69/65/58 
f 69/65/58 70/66/59 59/55/49 
f 62/58/52 64/60/54 71/67/50 
f 71/67/50 69/65/58 62/58/52 
f 64/60/54 66/62/56 72/68/60 
f 72/68/60 71/67/50 64/60/54 
f 66/62/56 68/64/57 73/69/61 
f 73/69/61 72/68/60 66/62/56 
f 70/66/59 69/65/58 74/70/62 
f 74/70/62 75/71/63 70/66/59 
f 69/65/58 71/67/50 76/72/64 
f 76/72/64 74/70/62 69/65/58 
f 71/67/50 72/68/60 77/73/65 
f 77/73/65 76/72/64 71/67/50 
f 72/68/60 73/69/61 78/74/66 
f 78/74/66 77/73/65 72/68/60 
f 75/71/63 74/70/62 79/75/67 
f 79/75/67 80/76/50 75/71/63 
f 74/70/62 76/72/64 81/77/68 
f 81/77/68 79/75/67 74/70/62 
f 76/72/64 77/73/65 82/78/69 
f 82/78/69 81/77/68 76/72/64 
f 82/78/69 77/73/65 78/74/66 
f 78/74/66 83/79/50 82/78/69 
# 32 faces

#
# object Plane004
#

v  -4.916395 -0.146223 3.301182
v  -4.916395 -0.146223 4.843164
v  -3.353060 -0.146223 4.843164
v  -3.353060 0.291865 3.301182
v  -1.789725 -0.146223 4.843164
v  -1.789725 0.291865 3.301182
v  -0.226390 -0.146223 4.843164
v  -0.226390 0.291865 3.301182
v  1.336945 -0.146223 4.843164
v  1.336945 -0.146223 3.301182
v  -3.353060 0.291865 1.759200
v  -4.916395 -0.146223 1.759200
v  -1.789725 0.291865 1.759200
v  -0.226390 0.291865 1.759200
v  1.336945 -0.146223 1.759200
v  -3.353060 0.291865 0.217218
v  -4.916395 -0.146223 0.217218
v  -1.789725 0.291865 0.217218
v  -0.226390 0.291865 0.217218
v  1.336945 -0.146223 0.217218
v  -3.353060 -0.146223 -1.324764
v  -4.916395 -0.146223 -1.324764
v  -1.789725 -0.146223 -1.324764
v  -0.226390 -0.146223 -1.324764
v  1.336945 -0.146223 -1.324764
# 25 vertices

vn -0.202902 0.976790 0.068637
vn 0.000000 1.000000 -0.000000
vn -0.068838 0.975974 0.206727
vn -0.133449 0.981787 0.135226
vn 0.000000 0.961931 0.273291
vn 0.000000 0.990437 0.137965
vn 0.068838 0.975974 0.206727
vn 0.133449 0.981787 0.135226
vn 0.202902 0.976790 0.068637
vn -0.136185 0.990683 -0.000000
vn -0.269832 0.962907 -0.000000
vn 0.136185 0.990683 -0.000000
vn 0.269832 0.962907 -0.000000
vn -0.133449 0.981787 -0.135226
vn -0.202902 0.976790 -0.068637
vn 0.000000 0.990437 -0.137965
vn 0.133449 0.981787 -0.135226
vn 0.202902 0.976790 -0.068637
vn -0.068838 0.975974 -0.206727
vn 0.000000 0.961931 -0.273291
vn 0.068838 0.975974 -0.206727
# 21 vertex normals

vt 0.000000 0.250000 0.000000
vt 0.000000 0.000000 0.000000
vt 0.250000 0.000000 0.000000
vt 0.250000 0.250000 0.000000
vt 0.500000 0.000000 0.000000
vt 0.500000 0.250000 0.000000
vt 0.750000 0.000000 0.000000
vt 0.750000 0.250000 0.000000
vt 1.000000 0.000000 0.000000
vt 1.000000 0.250000 0.000000
vt 0.250000 0.500000 0.000000
vt 0.000000 0.500000 0.000000
vt 0.500000 0.500000 0.000000
vt 0.750000 0.500000 0.000000
vt 1.000000 0.500000 0.000000
vt 0.250000 0.750000 0.000000
vt 0.000000 0.750000 0.000000
vt 0.500000 0.750000 0.000000
vt 0.750000 0.750000 0.000000
vt 1.000000 0.750000 0.000000
vt 0.250000 1.000000 0.000000
vt 0.000000 1.000000 0.000000
vt 0.500000 1.000000 0.000000
vt 0.750000 1.000000 0.000000
vt 1.000000 1.000000 0.000000
# 25 texture coords

g Plane004
usemtl oreMaterial
f 84/80/70 85/81/71 86/82/72 
f 86/82/72 87/83/73 84/80/70 
f 86/82/72 88/84/74 89/85/75 
f 89/85/75 87/83/73 86/82/72 
f 88/84/74 90/86/76 91/87/77 
f 91/87/77 89/85/75 88/84/74 
f 90/86/76 92/88/71 93/89/78 
f 93/89/78 91/87/77 90/86/76 
f 84/80/70 87/83/73 94/90/79 
f 94/90/79 95/91/80 84/80/70 
f 87/83/73 89/85/75 96/92/71 
f 96/92/71 94/90/79 87/83/73 
f 89/85/75 91/87/77 97/93/81 
f 97/93/81 96/92/71 89/85/75 
f 91/87/77 93/89/78 98/94/82 
f 98/94/82 97/93/81 91/87/77 
f 95/91/80 94/90/79 99/95/83 
f 99/95/83 100/96/84 95/91/80 
f 94/90/79 96/92/71 101/97/85 
f 101/97/85 99/95/83 94/90/79 
f 96/92/71 97/93/81 102/98/86 
f 102/98/86 101/97/85 96/92/71 
f 97/93/81 98/94/82 103/99/87 
f 103/99/87 102/98/86 97/93/81 
f 100/96/84 99/95/83 104/100/88 
f 104/100/88 105/101/71 100/96/84 
f 99/95/83 101/97/85 106/102/89 
f 106/102/89 104/100/88 99/95/83 
f 101/97/85 102/98/86 107/103/90 
f 107/103/90 106/102/89 101/97/85 
f 107/103/90 102/98/86 103/99/87 
f 103/99/87 108/104/71 107/103/90 
# 32 faces

