# 3ds Max Wavefront OBJ Exporter v0.97b - (c)2007 guruware
# File Created: 17.08.2014 12:55:18

mtllib Quarry0.mtl

#
# object Quarry0
#

v  -0.8000 -1.0000 -0.8000
v  -0.8000 -1.0000 0.8000
v  0.8000 -1.0000 0.8000
v  0.8000 -1.0000 -0.8000
v  -5.0000 -10.0000 5.0000
v  5.0000 -10.0000 5.0000
v  5.0000 0.0000 5.0000
v  -5.0000 0.0000 5.0000
v  5.0000 -10.0000 -5.0000
v  5.0000 0.0000 -5.0000
v  -5.0000 -10.0000 -5.0000
v  -5.0000 0.0000 -5.0000
v  4.0000 0.0000 4.0000
v  -4.0000 0.0000 4.0000
v  4.0000 0.0000 -4.0000
v  -4.0000 0.0000 -4.0000
v  4.0000 -10.0000 4.0000
v  2.4000 -10.0000 4.0000
v  0.8000 -10.0000 4.0000
v  -0.8000 -10.0000 4.0000
v  -2.4000 -10.0000 4.0000
v  -4.0000 -10.0000 4.0000
v  4.0000 -10.0000 -4.0000
v  4.0000 -10.0000 -2.4000
v  4.0000 -10.0000 -0.8000
v  4.0000 -10.0000 0.8000
v  4.0000 -10.0000 2.4000
v  -4.0000 -10.0000 -4.0000
v  -2.4000 -10.0000 -4.0000
v  -0.8000 -10.0000 -4.0000
v  0.8000 -10.0000 -4.0000
v  2.4000 -10.0000 -4.0000
v  -4.0000 -10.0000 2.4000
v  -4.0000 -10.0000 0.8000
v  -4.0000 -10.0000 -0.8000
v  -4.0000 -10.0000 -2.4000
v  -0.8000 -2.0000 -4.0000
v  -0.8000 -2.0000 -2.4000
v  0.8000 -2.0000 -2.4000
v  0.8000 -2.0000 -4.0000
v  -0.8000 -1.0000 -2.4000
v  0.8000 -1.0000 -2.4000
v  0.8000 -1.0000 4.0000
v  0.8000 -1.0000 2.4000
v  -0.8000 -1.0000 2.4000
v  -0.8000 -1.0000 4.0000
v  -4.0000 -1.0000 -0.8000
v  -4.0000 -1.0000 0.8000
v  -2.4000 -1.0000 0.8000
v  -2.4000 -1.0000 -0.8000
v  4.0000 -2.0000 0.8000
v  4.0000 -2.0000 -0.8000
v  2.4000 -2.0000 -0.8000
v  2.4000 -2.0000 0.8000
v  2.4000 -1.0000 0.8000
v  2.4000 -1.0000 -0.8000
v  -4.0000 -1.0000 -4.0000
v  -4.0000 -1.0000 -2.4000
v  -2.4000 -1.0000 -2.4000
v  -2.4000 -1.0000 -4.0000
v  -2.4000 -2.0000 -4.0000
v  -2.4000 -2.0000 -2.4000
v  4.0000 -2.0000 -2.4000
v  4.0000 -2.0000 -4.0000
v  2.4000 -2.0000 -4.0000
v  2.4000 -2.0000 -2.4000
v  0.8000 -2.0000 -0.8000
v  4.0000 -1.0000 4.0000
v  4.0000 -1.0000 2.4000
v  2.4000 -1.0000 2.4000
v  2.4000 -1.0000 4.0000
v  -4.0000 -1.0000 2.4000
v  -4.0000 -1.0000 4.0000
v  -2.4000 -1.0000 4.0000
v  -2.4000 -1.0000 2.4000
v  4.0000 -2.0000 2.4000
v  2.4000 -2.0000 2.4000
v  -2.4000 -2.0000 4.0000
v  -4.0000 -2.0000 4.0000
v  -0.8000 -2.0000 4.0000
v  0.8000 -2.0000 4.0000
v  2.4000 -2.0000 4.0000
v  4.0000 -2.0000 4.0000
v  -4.0000 -2.0000 -4.0000
v  -4.0000 -2.0000 -2.4000
v  -4.0000 -2.0000 -0.8000
v  -4.0000 -2.0000 0.8000
v  -4.0000 -2.0000 2.4000
# 88 vertices

vn 0.0000 1.0000 -0.0000
vn 0.0000 0.0000 1.0000
vn 1.0000 0.0000 -0.0000
vn 0.0000 0.0000 -1.0000
vn -1.0000 0.0000 -0.0000
# 5 vertex normals

vt 0.4000 0.6000 0.0000
vt 0.4000 0.4000 0.0000
vt 0.6000 0.4000 0.0000
vt 0.6000 0.6000 0.0000
vt 0.0000 0.0000 0.0000
vt 1.0000 0.0000 0.0000
vt 1.0000 1.0000 0.0000
vt 0.0000 1.0000 0.0000
vt 0.8000 0.0000 0.0000
vt 0.6000 0.0000 0.0000
vt 0.4000 0.0000 0.0000
vt 0.2000 0.0000 0.0000
vt 1.0000 0.8000 0.0000
vt 1.0000 0.6000 0.0000
vt 1.0000 0.4000 0.0000
vt 1.0000 0.2000 0.0000
vt 0.2000 1.0000 0.0000
vt 0.4000 1.0000 0.0000
vt 0.6000 1.0000 0.0000
vt 0.8000 1.0000 0.0000
vt 0.0000 0.2000 0.0000
vt 0.0000 0.4000 0.0000
vt 0.0000 0.6000 0.0000
vt 0.0000 0.8000 0.0000
vt 0.4000 0.8000 0.0000
vt 0.6000 0.8000 0.0000
vt 0.6000 0.2000 0.0000
vt 0.4000 0.2000 0.0000
vt 0.2000 0.4000 0.0000
vt 0.2000 0.6000 0.0000
vt 0.8000 0.6000 0.0000
vt 0.8000 0.4000 0.0000
vt 0.2000 0.8000 0.0000
vt 0.8000 0.8000 0.0000
vt 0.8000 0.2000 0.0000
vt 0.2000 0.2000 0.0000
# 36 texture coords

g Quarry0
usemtl wire_086086086
s 4
f 1/1/1 2/2/1 3/3/1 
f 3/3/1 4/4/1 1/1/1 
s 8
f 5/5/2 6/6/2 7/7/2 
f 7/7/2 8/8/2 5/5/2 
s 16
f 6/5/3 9/6/3 10/7/3 
f 10/7/3 7/8/3 6/5/3 
s 32
f 9/5/4 11/6/4 12/7/4 
f 12/7/4 10/8/4 9/5/4 
s 64
f 11/5/5 5/6/5 8/7/5 
f 8/7/5 12/8/5 11/5/5 
s off
f 8/8/1 7/7/1 13/6/1 
f 13/6/1 14/5/1 8/8/1 
f 7/8/1 10/7/1 15/7/1 
f 15/7/1 13/6/1 7/8/1 
f 10/8/1 12/7/1 16/8/1 
f 16/8/1 15/7/1 10/8/1 
f 12/8/1 8/7/1 14/5/1 
f 14/5/1 16/8/1 12/8/1 
f 14/5/4 13/6/4 17/6/4 
f 14/5/4 17/6/4 18/9/4 
f 14/5/4 18/9/4 19/10/4 
f 14/5/4 19/10/4 20/11/4 
f 14/5/4 20/11/4 21/12/4 
f 14/5/4 21/12/4 22/5/4 
f 13/6/5 15/7/5 23/7/5 
f 13/6/5 23/7/5 24/13/5 
f 13/6/5 24/13/5 25/14/5 
f 13/6/5 25/14/5 26/15/5 
f 13/6/5 26/15/5 27/16/5 
f 13/6/5 27/16/5 17/6/5 
f 15/7/2 16/8/2 28/8/2 
f 15/7/2 28/8/2 29/17/2 
f 15/7/2 29/17/2 30/18/2 
f 15/7/2 30/18/2 31/19/2 
f 15/7/2 31/19/2 32/20/2 
f 15/7/2 32/20/2 23/7/2 
f 16/8/3 14/5/3 22/5/3 
f 16/8/3 22/5/3 33/21/3 
f 16/8/3 33/21/3 34/22/3 
f 16/8/3 34/22/3 35/23/3 
f 16/8/3 35/23/3 36/24/3 
f 16/8/3 36/24/3 28/8/3 
s 4
f 37/18/1 38/25/1 39/26/1 
f 39/26/1 40/19/1 37/18/1 
f 41/25/1 1/1/1 4/4/1 
f 4/4/1 42/26/1 41/25/1 
f 43/10/1 44/27/1 45/28/1 
f 45/28/1 46/11/1 43/10/1 
f 44/27/1 3/3/1 2/2/1 
f 2/2/1 45/28/1 44/27/1 
f 47/23/1 48/22/1 49/29/1 
f 49/29/1 50/30/1 47/23/1 
f 50/30/1 49/29/1 2/2/1 
f 2/2/1 1/1/1 50/30/1 
f 51/15/1 52/14/1 53/31/1 
f 53/31/1 54/32/1 51/15/1 
f 55/32/1 56/31/1 4/4/1 
f 4/4/1 3/3/1 55/32/1 
f 57/8/1 58/24/1 59/33/1 
f 59/33/1 60/17/1 57/8/1 
f 61/17/1 62/33/1 38/25/1 
f 38/25/1 37/18/1 61/17/1 
f 63/13/1 64/7/1 65/20/1 
f 65/20/1 66/34/1 63/13/1 
f 66/34/1 65/20/1 40/19/1 
f 40/19/1 39/26/1 66/34/1 
f 58/24/1 47/23/1 50/30/1 
f 50/30/1 59/33/1 58/24/1 
f 59/33/1 50/30/1 1/1/1 
f 1/1/1 41/25/1 59/33/1 
f 52/14/1 63/13/1 66/34/1 
f 66/34/1 53/31/1 52/14/1 
f 53/31/1 66/34/1 39/26/1 
f 39/26/1 67/4/1 53/31/1 
f 68/6/1 69/16/1 70/35/1 
f 70/35/1 71/9/1 68/6/1 
f 71/9/1 70/35/1 44/27/1 
f 44/27/1 43/10/1 71/9/1 
f 72/21/1 73/5/1 74/12/1 
f 74/12/1 75/36/1 72/21/1 
f 75/36/1 74/12/1 46/11/1 
f 46/11/1 45/28/1 75/36/1 
f 76/16/1 51/15/1 54/32/1 
f 54/32/1 77/35/1 76/16/1 
f 70/35/1 55/32/1 3/3/1 
f 3/3/1 44/27/1 70/35/1 
f 48/22/1 72/21/1 75/36/1 
f 75/36/1 49/29/1 48/22/1 
f 49/29/1 75/36/1 45/28/1 
f 45/28/1 2/2/1 49/29/1 
s off
f 22/5/2 21/12/2 78/12/2 
f 78/12/2 79/5/2 22/5/2 
f 21/12/2 20/11/2 80/11/2 
f 80/11/2 78/12/2 21/12/2 
f 20/11/2 19/10/2 81/10/2 
f 81/10/2 80/11/2 20/11/2 
f 19/10/2 18/9/2 82/9/2 
f 82/9/2 81/10/2 19/10/2 
f 18/9/2 17/6/2 83/6/2 
f 83/6/2 82/9/2 18/9/2 
f 17/6/3 27/16/3 76/16/3 
f 76/16/3 83/6/3 17/6/3 
f 27/16/3 26/15/3 51/15/3 
f 51/15/3 76/16/3 27/16/3 
f 26/15/3 25/14/3 52/14/3 
f 52/14/3 51/15/3 26/15/3 
f 25/14/3 24/13/3 63/13/3 
f 63/13/3 52/14/3 25/14/3 
f 24/13/3 23/7/3 64/7/3 
f 64/7/3 63/13/3 24/13/3 
f 23/7/4 32/20/4 65/20/4 
f 65/20/4 64/7/4 23/7/4 
f 32/20/4 31/19/4 40/19/4 
f 40/19/4 65/20/4 32/20/4 
f 31/19/4 30/18/4 37/18/4 
f 37/18/4 40/19/4 31/19/4 
f 30/18/4 29/17/4 61/17/4 
f 61/17/4 37/18/4 30/18/4 
f 29/17/4 28/8/4 84/8/4 
f 84/8/4 61/17/4 29/17/4 
f 28/8/5 36/24/5 85/24/5 
f 85/24/5 84/8/5 28/8/5 
f 36/24/5 35/23/5 86/23/5 
f 86/23/5 85/24/5 36/24/5 
f 35/23/5 34/22/5 87/22/5 
f 87/22/5 86/23/5 35/23/5 
f 34/22/5 33/21/5 88/21/5 
f 88/21/5 87/22/5 34/22/5 
f 33/21/5 22/5/5 79/5/5 
f 79/5/5 88/21/5 33/21/5 
f 39/26/4 38/25/4 41/25/4 
f 41/25/4 42/26/4 39/26/4 
f 38/25/4 62/33/4 59/33/4 
f 59/33/4 41/25/4 38/25/4 
f 62/33/3 61/17/3 60/17/3 
f 60/17/3 59/33/3 62/33/3 
f 61/17/4 84/8/4 57/8/4 
f 57/8/4 60/17/4 61/17/4 
f 84/8/5 85/24/5 58/24/5 
f 58/24/5 57/8/5 84/8/5 
f 85/24/5 86/23/5 47/23/5 
f 47/23/5 58/24/5 85/24/5 
f 86/23/5 87/22/5 48/22/5 
f 48/22/5 47/23/5 86/23/5 
f 87/22/5 88/21/5 72/21/5 
f 72/21/5 48/22/5 87/22/5 
f 88/21/5 79/5/5 73/5/5 
f 73/5/5 72/21/5 88/21/5 
f 79/5/2 78/12/2 74/12/2 
f 74/12/2 73/5/2 79/5/2 
f 78/12/2 80/11/2 46/11/2 
f 46/11/2 74/12/2 78/12/2 
f 80/11/2 81/10/2 43/10/2 
f 43/10/2 46/11/2 80/11/2 
f 81/10/2 82/9/2 71/9/2 
f 71/9/2 43/10/2 81/10/2 
f 82/9/2 83/6/2 68/6/2 
f 68/6/2 71/9/2 82/9/2 
f 83/6/3 76/16/3 69/16/3 
f 69/16/3 68/6/3 83/6/3 
f 76/16/4 77/35/4 70/35/4 
f 70/35/4 69/16/4 76/16/4 
f 77/35/3 54/32/3 55/32/3 
f 55/32/3 70/35/3 77/35/3 
f 54/32/3 53/31/3 56/31/3 
f 56/31/3 55/32/3 54/32/3 
f 53/31/4 67/4/4 4/4/4 
f 4/4/4 56/31/4 53/31/4 
f 67/4/3 39/26/3 42/26/3 
f 42/26/3 4/4/3 67/4/3 
# 170 faces

