# 3ds Max Wavefront OBJ Exporter v0.97b - (c)2007 guruware
# File Created: 17.08.2014 12:55:43

mtllib Quarry2.mtl

#
# object Ladder
#

v  2.0319 -4.2758 3.3703
v  1.8004 -4.1678 3.3703
v  1.4407 -4.9394 3.3703
v  1.6721 -5.0473 3.3703
v  4.1905 0.3534 1.9896
v  3.9590 0.4613 1.9896
v  3.9590 0.4613 3.2186
v  4.1905 0.3534 3.2186
v  2.0319 -4.2758 1.8380
v  1.8004 -4.1678 1.8380
v  2.1602 -3.3963 1.8380
v  2.3917 -3.5042 1.8380
v  -0.1267 -8.9049 3.2186
v  -0.3582 -8.7970 3.2186
v  -0.3582 -8.7970 1.9896
v  -0.1267 -8.9049 1.9896
v  4.1905 0.3534 3.3703
v  3.9590 0.4613 3.3703
v  3.5993 -0.3102 3.3703
v  3.8307 -0.4181 3.3703
v  3.2395 -1.0817 3.3703
v  3.4710 -1.1897 3.3703
v  2.8797 -1.8533 3.3703
v  3.1112 -1.9612 3.3703
v  2.5200 -2.6248 3.3703
v  2.7514 -2.7327 3.3703
v  2.1602 -3.3963 3.3703
v  2.3917 -3.5043 3.3703
v  -0.3582 -8.7970 3.3703
v  -0.1267 -8.9049 3.3703
v  0.2330 -8.1334 3.3703
v  0.0016 -8.0255 3.3703
v  0.5928 -7.3619 3.3703
v  0.3614 -7.2539 3.3703
v  0.9526 -6.5904 3.3703
v  0.7211 -6.4824 3.3703
v  1.3124 -5.8188 3.3703
v  1.0809 -5.7109 3.3703
v  -0.1267 -8.9049 1.8380
v  -0.3582 -8.7970 1.8380
v  0.0016 -8.0255 1.8380
v  0.2330 -8.1334 1.8380
v  0.3614 -7.2540 1.8380
v  0.5928 -7.3619 1.8380
v  0.7211 -6.4824 1.8380
v  0.9526 -6.5904 1.8380
v  1.0809 -5.7109 1.8380
v  1.3124 -5.8188 1.8380
v  1.4407 -4.9394 1.8380
v  1.6721 -5.0473 1.8380
v  3.9590 0.4613 1.8380
v  4.1905 0.3534 1.8380
v  3.8307 -0.4181 1.8380
v  3.5993 -0.3102 1.8380
v  3.4710 -1.1897 1.8380
v  3.2395 -1.0817 1.8380
v  3.1112 -1.9612 1.8380
v  2.8797 -1.8533 1.8380
v  2.7514 -2.7327 1.8380
v  2.5200 -2.6248 1.8380
v  1.9712 -4.4059 1.9815
v  1.7328 -4.9172 1.9815
v  1.9712 -4.4059 3.2268
v  1.7328 -4.9172 3.2268
v  1.7398 -4.2979 3.2268
v  1.5013 -4.8093 3.2268
v  1.7398 -4.2979 1.9815
v  1.5013 -4.8093 1.9815
v  4.1298 0.2233 1.9815
v  3.8914 -0.2881 1.9815
v  4.1298 0.2233 3.2268
v  3.8914 -0.2881 3.2268
v  3.7701 -0.5482 1.9815
v  3.5316 -1.0596 1.9815
v  3.7701 -0.5482 3.2268
v  3.5316 -1.0596 3.2268
v  3.4103 -1.3198 1.9815
v  3.1719 -1.8311 1.9815
v  3.4103 -1.3198 3.2268
v  3.1719 -1.8311 3.2268
v  3.0505 -2.0913 1.9815
v  2.8121 -2.6026 1.9815
v  3.0505 -2.0913 3.2268
v  2.8121 -2.6026 3.2268
v  2.6908 -2.8628 1.9815
v  2.4523 -3.3742 1.9815
v  2.6908 -2.8628 3.2268
v  2.4523 -3.3742 3.2268
v  2.3310 -3.6343 1.9815
v  2.0925 -4.1457 1.9815
v  2.3310 -3.6343 3.2268
v  2.0925 -4.1457 3.2268
v  -0.0661 -8.7749 3.2268
v  0.1724 -8.2635 3.2268
v  -0.0661 -8.7749 1.9815
v  0.1724 -8.2635 1.9815
v  0.2937 -8.0033 3.2268
v  0.5322 -7.4920 3.2268
v  0.2937 -8.0033 1.9815
v  0.5322 -7.4920 1.9815
v  0.6535 -7.2318 3.2268
v  0.8919 -6.7204 3.2268
v  0.6535 -7.2318 1.9815
v  0.8919 -6.7204 1.9815
v  1.0132 -6.4603 3.2268
v  1.2517 -5.9489 3.2268
v  1.0132 -6.4603 1.9815
v  1.2517 -5.9489 1.9815
v  1.3730 -5.6887 3.2268
v  1.6115 -5.1774 3.2268
v  1.3730 -5.6887 1.9815
v  1.6115 -5.1774 1.9815
v  3.8984 0.3312 3.2268
v  3.6599 -0.1801 3.2268
v  3.8984 0.3312 1.9815
v  3.6599 -0.1801 1.9815
v  3.5386 -0.4403 3.2268
v  3.3002 -0.9517 3.2268
v  3.5386 -0.4403 1.9815
v  3.3002 -0.9517 1.9815
v  3.1788 -1.2118 3.2268
v  2.9404 -1.7232 3.2268
v  3.1788 -1.2118 1.9815
v  2.9404 -1.7232 1.9815
v  2.8191 -1.9833 3.2268
v  2.5806 -2.4947 3.2268
v  2.8191 -1.9833 1.9815
v  2.5806 -2.4947 1.9815
v  2.4593 -2.7549 3.2268
v  2.2209 -3.2662 3.2268
v  2.4593 -2.7549 1.9815
v  2.2209 -3.2662 1.9815
v  2.0995 -3.5264 3.2268
v  1.8611 -4.0378 3.2268
v  2.0995 -3.5264 1.9815
v  1.8611 -4.0378 1.9815
v  -0.2975 -8.6669 1.9815
v  -0.0591 -8.1556 1.9815
v  -0.2975 -8.6669 3.2268
v  -0.0591 -8.1556 3.2268
v  0.0622 -7.8954 1.9815
v  0.3007 -7.3840 1.9815
v  0.0622 -7.8954 3.2268
v  0.3007 -7.3840 3.2268
v  0.4220 -7.1239 1.9815
v  0.6605 -6.6125 1.9815
v  0.4220 -7.1239 3.2268
v  0.6605 -6.6125 3.2268
v  0.7818 -6.3523 1.9815
v  1.0202 -5.8410 1.9815
v  0.7818 -6.3523 3.2268
v  1.0202 -5.8410 3.2268
v  1.1416 -5.5808 1.9815
v  1.3800 -5.0695 1.9815
v  1.1416 -5.5808 3.2268
v  1.3800 -5.0695 3.2268
v  -0.3426 -9.3678 3.3703
v  -0.5740 -9.2599 3.3703
v  -0.5740 -9.2599 3.2186
v  -0.3426 -9.3678 3.2186
v  -0.5740 -9.2599 1.8380
v  -0.3426 -9.3678 1.8380
v  -0.3426 -9.3678 1.9896
v  -0.5740 -9.2599 1.9896
v  4.4064 0.8163 1.8380
v  4.1749 0.9242 1.8380
v  4.1749 0.9242 1.9896
v  4.4064 0.8163 1.9896
v  4.1749 0.9242 3.3703
v  4.4064 0.8163 3.3703
v  4.4064 0.8163 3.2186
v  4.1749 0.9242 3.2186
# 172 vertices

vn 0.0000 0.0000 1.0000
vn 0.4226 0.9063 -0.0000
vn 0.0000 0.0000 -1.0000
vn -0.4226 -0.9063 -0.0000
vn 0.9063 -0.4226 -0.0000
vn -0.9063 0.4226 -0.0000
vn 0.4226 0.9063 0.0000
vn -0.4226 -0.9063 0.0000
# 8 vertex normals

vt 0.5000 0.0000 0.0000
vt 0.5000 1.0000 0.0000
vt 0.4167 1.0000 0.0000
vt 0.4167 0.0000 0.0000
vt 0.9010 0.0000 0.0000
vt 0.9010 1.0000 0.0000
vt 0.0990 1.0000 0.0000
vt 0.0990 0.0000 0.0000
vt 1.0000 0.0000 0.0000
vt 1.0000 1.0000 0.0000
vt 0.9167 1.0000 0.0000
vt 0.9167 0.0000 0.0000
vt 0.8333 1.0000 0.0000
vt 0.8333 0.0000 0.0000
vt 0.7500 1.0000 0.0000
vt 0.7500 0.0000 0.0000
vt 0.6667 1.0000 0.0000
vt 0.6667 0.0000 0.0000
vt 0.5833 1.0000 0.0000
vt 0.5833 0.0000 0.0000
vt 0.0000 1.0000 0.0000
vt 0.0000 0.0000 0.0000
vt 0.0833 0.0000 0.0000
vt 0.0833 1.0000 0.0000
vt 0.1667 0.0000 0.0000
vt 0.1667 1.0000 0.0000
vt 0.2500 0.0000 0.0000
vt 0.2500 1.0000 0.0000
vt 0.3333 0.0000 0.0000
vt 0.3333 1.0000 0.0000
vt 0.0000 0.0990 0.0000
vt 0.0000 0.9010 0.0000
vt 1.0000 0.9010 0.0000
vt 1.0000 0.0990 0.0000
# 34 texture coords

g Ladder
usemtl wire_038021002
s 8
f 1/1/1 2/2/1 3/3/1 
f 3/3/1 4/4/1 1/1/1 
s 16
f 5/5/2 6/6/2 7/7/2 
f 7/7/2 8/8/2 5/5/2 
s 32
f 9/1/3 10/2/3 11/3/3 
f 11/3/3 12/4/3 9/1/3 
s 64
f 13/5/4 14/6/4 15/7/4 
f 15/7/4 16/8/4 13/5/4 
s 8
f 17/9/1 18/10/1 19/11/1 
f 19/11/1 20/12/1 17/9/1 
f 20/12/1 19/11/1 21/13/1 
f 21/13/1 22/14/1 20/12/1 
f 22/14/1 21/13/1 23/15/1 
f 23/15/1 24/16/1 22/14/1 
f 24/16/1 23/15/1 25/17/1 
f 25/17/1 26/18/1 24/16/1 
f 26/18/1 25/17/1 27/19/1 
f 27/19/1 28/20/1 26/18/1 
f 28/20/1 27/19/1 2/2/1 
f 2/2/1 1/1/1 28/20/1 
f 29/21/1 30/22/1 31/23/1 
f 31/23/1 32/24/1 29/21/1 
f 32/24/1 31/23/1 33/25/1 
f 33/25/1 34/26/1 32/24/1 
f 34/26/1 33/25/1 35/27/1 
f 35/27/1 36/28/1 34/26/1 
f 36/28/1 35/27/1 37/29/1 
f 37/29/1 38/30/1 36/28/1 
f 38/30/1 37/29/1 4/4/1 
f 4/4/1 3/3/1 38/30/1 
s 32
f 39/9/3 40/10/3 41/11/3 
f 41/11/3 42/12/3 39/9/3 
f 42/12/3 41/11/3 43/13/3 
f 43/13/3 44/14/3 42/12/3 
f 44/14/3 43/13/3 45/15/3 
f 45/15/3 46/16/3 44/14/3 
f 46/16/3 45/15/3 47/17/3 
f 47/17/3 48/18/3 46/16/3 
f 48/18/3 47/17/3 49/19/3 
f 49/19/3 50/20/3 48/18/3 
f 50/20/3 49/19/3 10/2/3 
f 10/2/3 9/1/3 50/20/3 
f 51/21/3 52/22/3 53/23/3 
f 53/23/3 54/24/3 51/21/3 
f 54/24/3 53/23/3 55/25/3 
f 55/25/3 56/26/3 54/24/3 
f 56/26/3 55/25/3 57/27/3 
f 57/27/3 58/28/3 56/26/3 
f 58/28/3 57/27/3 59/29/3 
f 59/29/3 60/30/3 58/28/3 
f 60/30/3 59/29/3 12/4/3 
f 12/4/3 11/3/3 60/30/3 
s off
f 50/19/5 9/2/5 61/2/5 
f 61/2/5 62/19/5 50/19/5 
f 9/2/5 1/1/5 63/1/5 
f 63/1/5 61/2/5 9/2/5 
f 1/1/5 4/20/5 64/20/5 
f 64/20/5 63/1/5 1/1/5 
f 4/20/5 50/19/5 62/19/5 
f 62/19/5 64/20/5 4/20/5 
f 3/4/6 2/1/6 65/1/6 
f 65/1/6 66/4/6 3/4/6 
f 2/1/6 10/2/6 67/2/6 
f 67/2/6 65/1/6 2/1/6 
f 10/2/6 49/3/6 68/3/6 
f 68/3/6 67/2/6 10/2/6 
f 49/3/6 3/4/6 66/4/6 
f 66/4/6 68/3/6 49/3/6 
f 53/24/5 52/21/5 69/21/5 
f 69/21/5 70/24/5 53/24/5 
f 8/31/5 17/22/5 71/22/5 
f 5/32/5 8/31/5 71/22/5 
f 52/21/5 5/32/5 71/22/5 
f 52/21/5 71/22/5 69/21/5 
f 17/22/5 20/23/5 72/23/5 
f 72/23/5 71/22/5 17/22/5 
f 20/23/5 53/24/5 70/24/5 
f 70/24/5 72/23/5 20/23/5 
f 55/26/5 53/24/5 73/24/5 
f 73/24/5 74/26/5 55/26/5 
f 53/24/5 20/23/5 75/23/5 
f 75/23/5 73/24/5 53/24/5 
f 20/23/5 22/25/5 76/25/5 
f 76/25/5 75/23/5 20/23/5 
f 22/25/5 55/26/5 74/26/5 
f 74/26/5 76/25/5 22/25/5 
f 57/28/5 55/26/5 77/26/5 
f 77/26/5 78/28/5 57/28/5 
f 55/26/5 22/25/5 79/25/5 
f 79/25/5 77/26/5 55/26/5 
f 22/25/5 24/27/5 80/27/5 
f 80/27/5 79/25/5 22/25/5 
f 24/27/5 57/28/5 78/28/5 
f 78/28/5 80/27/5 24/27/5 
f 59/30/5 57/28/5 81/28/5 
f 81/28/5 82/30/5 59/30/5 
f 57/28/5 24/27/5 83/27/5 
f 83/27/5 81/28/5 57/28/5 
f 24/27/5 26/29/5 84/29/5 
f 84/29/5 83/27/5 24/27/5 
f 26/29/5 59/30/5 82/30/5 
f 82/30/5 84/29/5 26/29/5 
f 12/3/5 59/30/5 85/30/5 
f 85/30/5 86/3/5 12/3/5 
f 59/30/5 26/29/5 87/29/5 
f 87/29/5 85/30/5 59/30/5 
f 26/29/5 28/4/5 88/4/5 
f 88/4/5 87/29/5 26/29/5 
f 28/4/5 12/3/5 86/3/5 
f 86/3/5 88/4/5 28/4/5 
f 9/2/5 12/3/5 89/3/5 
f 89/3/5 90/2/5 9/2/5 
f 12/3/5 28/4/5 91/4/5 
f 91/4/5 89/3/5 12/3/5 
f 28/4/5 1/1/5 92/1/5 
f 92/1/5 91/4/5 28/4/5 
f 1/1/5 9/2/5 90/2/5 
f 90/2/5 92/1/5 1/1/5 
f 31/12/5 30/9/5 93/9/5 
f 93/9/5 94/12/5 31/12/5 
f 16/33/5 39/10/5 95/10/5 
f 13/34/5 16/33/5 95/10/5 
f 30/9/5 13/34/5 95/10/5 
f 30/9/5 95/10/5 93/9/5 
f 39/10/5 42/11/5 96/11/5 
f 96/11/5 95/10/5 39/10/5 
f 42/11/5 31/12/5 94/12/5 
f 94/12/5 96/11/5 42/11/5 
f 33/14/5 31/12/5 97/12/5 
f 97/12/5 98/14/5 33/14/5 
f 31/12/5 42/11/5 99/11/5 
f 99/11/5 97/12/5 31/12/5 
f 42/11/5 44/13/5 100/13/5 
f 100/13/5 99/11/5 42/11/5 
f 44/13/5 33/14/5 98/14/5 
f 98/14/5 100/13/5 44/13/5 
f 35/16/5 33/14/5 101/14/5 
f 101/14/5 102/16/5 35/16/5 
f 33/14/5 44/13/5 103/13/5 
f 103/13/5 101/14/5 33/14/5 
f 44/13/5 46/15/5 104/15/5 
f 104/15/5 103/13/5 44/13/5 
f 46/15/5 35/16/5 102/16/5 
f 102/16/5 104/15/5 46/15/5 
f 37/18/5 35/16/5 105/16/5 
f 105/16/5 106/18/5 37/18/5 
f 35/16/5 46/15/5 107/15/5 
f 107/15/5 105/16/5 35/16/5 
f 46/15/5 48/17/5 108/17/5 
f 108/17/5 107/15/5 46/15/5 
f 48/17/5 37/18/5 106/18/5 
f 106/18/5 108/17/5 48/17/5 
f 4/20/5 37/18/5 109/18/5 
f 109/18/5 110/20/5 4/20/5 
f 37/18/5 48/17/5 111/17/5 
f 111/17/5 109/18/5 37/18/5 
f 48/17/5 50/19/5 112/19/5 
f 112/19/5 111/17/5 48/17/5 
f 50/19/5 4/20/5 110/20/5 
f 110/20/5 112/19/5 50/19/5 
f 19/12/6 18/9/6 113/9/6 
f 113/9/6 114/12/6 19/12/6 
f 6/33/6 51/10/6 115/10/6 
f 7/34/6 6/33/6 115/10/6 
f 18/9/6 7/34/6 115/10/6 
f 18/9/6 115/10/6 113/9/6 
f 51/10/6 54/11/6 116/11/6 
f 116/11/6 115/10/6 51/10/6 
f 54/11/6 19/12/6 114/12/6 
f 114/12/6 116/11/6 54/11/6 
f 21/14/6 19/12/6 117/12/6 
f 117/12/6 118/14/6 21/14/6 
f 19/12/6 54/11/6 119/11/6 
f 119/11/6 117/12/6 19/12/6 
f 54/11/6 56/13/6 120/13/6 
f 120/13/6 119/11/6 54/11/6 
f 56/13/6 21/14/6 118/14/6 
f 118/14/6 120/13/6 56/13/6 
f 23/16/6 21/14/6 121/14/6 
f 121/14/6 122/16/6 23/16/6 
f 21/14/6 56/13/6 123/13/6 
f 123/13/6 121/14/6 21/14/6 
f 56/13/6 58/15/6 124/15/6 
f 124/15/6 123/13/6 56/13/6 
f 58/15/6 23/16/6 122/16/6 
f 122/16/6 124/15/6 58/15/6 
f 25/18/6 23/16/6 125/16/6 
f 125/16/6 126/18/6 25/18/6 
f 23/16/6 58/15/6 127/15/6 
f 127/15/6 125/16/6 23/16/6 
f 58/15/6 60/17/6 128/17/6 
f 128/17/6 127/15/6 58/15/6 
f 60/17/6 25/18/6 126/18/6 
f 126/18/6 128/17/6 60/17/6 
f 27/20/6 25/18/6 129/18/6 
f 129/18/6 130/20/6 27/20/6 
f 25/18/6 60/17/6 131/17/6 
f 131/17/6 129/18/6 25/18/6 
f 60/17/6 11/19/6 132/19/6 
f 132/19/6 131/17/6 60/17/6 
f 11/19/6 27/20/6 130/20/6 
f 130/20/6 132/19/6 11/19/6 
f 2/1/6 27/20/6 133/20/6 
f 133/20/6 134/1/6 2/1/6 
f 27/20/6 11/19/6 135/19/6 
f 135/19/6 133/20/6 27/20/6 
f 11/19/6 10/2/6 136/2/6 
f 136/2/6 135/19/6 11/19/6 
f 10/2/6 2/1/6 134/1/6 
f 134/1/6 136/2/6 10/2/6 
f 41/24/6 40/21/6 137/21/6 
f 137/21/6 138/24/6 41/24/6 
f 14/31/6 29/22/6 139/22/6 
f 15/32/6 14/31/6 139/22/6 
f 40/21/6 15/32/6 139/22/6 
f 40/21/6 139/22/6 137/21/6 
f 29/22/6 32/23/6 140/23/6 
f 140/23/6 139/22/6 29/22/6 
f 32/23/6 41/24/6 138/24/6 
f 138/24/6 140/23/6 32/23/6 
f 43/26/6 41/24/6 141/24/6 
f 141/24/6 142/26/6 43/26/6 
f 41/24/6 32/23/6 143/23/6 
f 143/23/6 141/24/6 41/24/6 
f 32/23/6 34/25/6 144/25/6 
f 144/25/6 143/23/6 32/23/6 
f 34/25/6 43/26/6 142/26/6 
f 142/26/6 144/25/6 34/25/6 
f 45/28/6 43/26/6 145/26/6 
f 145/26/6 146/28/6 45/28/6 
f 43/26/6 34/25/6 147/25/6 
f 147/25/6 145/26/6 43/26/6 
f 34/25/6 36/27/6 148/27/6 
f 148/27/6 147/25/6 34/25/6 
f 36/27/6 45/28/6 146/28/6 
f 146/28/6 148/27/6 36/27/6 
f 47/30/6 45/28/6 149/28/6 
f 149/28/6 150/30/6 47/30/6 
f 45/28/6 36/27/6 151/27/6 
f 151/27/6 149/28/6 45/28/6 
f 36/27/6 38/29/6 152/29/6 
f 152/29/6 151/27/6 36/27/6 
f 38/29/6 47/30/6 150/30/6 
f 150/30/6 152/29/6 38/29/6 
f 49/3/6 47/30/6 153/30/6 
f 153/30/6 154/3/6 49/3/6 
f 47/30/6 38/29/6 155/29/6 
f 155/29/6 153/30/6 47/30/6 
f 38/29/6 3/4/6 156/4/6 
f 156/4/6 155/29/6 38/29/6 
f 3/4/6 49/3/6 154/3/6 
f 154/3/6 156/4/6 3/4/6 
s 1
f 62/19/1 61/2/1 67/2/1 
f 67/2/1 68/3/1 62/19/1 
s 2
f 61/2/4 63/1/4 65/1/4 
f 65/1/4 67/2/4 61/2/4 
s 1
f 63/1/3 64/20/3 66/4/3 
f 66/4/3 65/1/3 63/1/3 
s 2
f 64/20/2 62/19/7 68/3/7 
f 68/3/7 66/4/2 64/20/2 
s 1
f 70/24/1 69/21/1 115/10/1 
f 115/10/1 116/11/1 70/24/1 
s 2
f 69/21/4 71/22/4 113/9/4 
f 113/9/4 115/10/4 69/21/4 
s 1
f 71/22/3 72/23/3 114/12/3 
f 114/12/3 113/9/3 71/22/3 
s 2
f 72/23/7 70/24/2 116/11/2 
f 116/11/2 114/12/7 72/23/7 
s 1
f 74/26/1 73/24/1 119/11/1 
f 119/11/1 120/13/1 74/26/1 
s 2
f 73/24/4 75/23/8 117/12/8 
f 117/12/8 119/11/4 73/24/4 
s 1
f 75/23/3 76/25/3 118/14/3 
f 118/14/3 117/12/3 75/23/3 
s 2
f 76/25/2 74/26/7 120/13/7 
f 120/13/7 118/14/2 76/25/2 
s 1
f 78/28/1 77/26/1 123/13/1 
f 123/13/1 124/15/1 78/28/1 
s 2
f 77/26/8 79/25/4 121/14/4 
f 121/14/4 123/13/8 77/26/8 
s 1
f 79/25/3 80/27/3 122/16/3 
f 122/16/3 121/14/3 79/25/3 
s 2
f 80/27/2 78/28/2 124/15/2 
f 124/15/2 122/16/2 80/27/2 
s 1
f 82/30/1 81/28/1 127/15/1 
f 127/15/1 128/17/1 82/30/1 
s 2
f 81/28/4 83/27/4 125/16/4 
f 125/16/4 127/15/4 81/28/4 
s 1
f 83/27/3 84/29/3 126/18/3 
f 126/18/3 125/16/3 83/27/3 
s 2
f 84/29/2 82/30/2 128/17/2 
f 128/17/2 126/18/2 84/29/2 
s 1
f 86/3/1 85/30/1 131/17/1 
f 131/17/1 132/19/1 86/3/1 
s 2
f 85/30/4 87/29/4 129/18/4 
f 129/18/4 131/17/4 85/30/4 
s 1
f 87/29/3 88/4/3 130/20/3 
f 130/20/3 129/18/3 87/29/3 
s 2
f 88/4/2 86/3/7 132/19/7 
f 132/19/7 130/20/2 88/4/2 
s 1
f 90/2/1 89/3/1 135/19/1 
f 135/19/1 136/2/1 90/2/1 
s 2
f 89/3/8 91/4/4 133/20/4 
f 133/20/4 135/19/8 89/3/8 
s 1
f 91/4/3 92/1/3 134/1/3 
f 134/1/3 133/20/3 91/4/3 
s 2
f 92/1/2 90/2/2 136/2/2 
f 136/2/2 134/1/2 92/1/2 
s 1
f 94/12/3 93/9/3 139/22/3 
f 139/22/3 140/23/3 94/12/3 
s 2
f 93/9/2 95/10/2 137/21/2 
f 137/21/2 139/22/2 93/9/2 
s 1
f 95/10/1 96/11/1 138/24/1 
f 138/24/1 137/21/1 95/10/1 
s 2
f 96/11/4 94/12/8 140/23/8 
f 140/23/8 138/24/4 96/11/4 
s 1
f 98/14/3 97/12/3 143/23/3 
f 143/23/3 144/25/3 98/14/3 
s 2
f 97/12/7 99/11/2 141/24/2 
f 141/24/2 143/23/7 97/12/7 
s 1
f 99/11/1 100/13/1 142/26/1 
f 142/26/1 141/24/1 99/11/1 
s 2
f 100/13/8 98/14/4 144/25/4 
f 144/25/4 142/26/8 100/13/8 
s 1
f 102/16/3 101/14/3 147/25/3 
f 147/25/3 148/27/3 102/16/3 
s 2
f 101/14/2 103/13/7 145/26/7 
f 145/26/7 147/25/2 101/14/2 
s 1
f 103/13/1 104/15/1 146/28/1 
f 146/28/1 145/26/1 103/13/1 
s 2
f 104/15/4 102/16/4 148/27/4 
f 148/27/4 146/28/4 104/15/4 
s 1
f 106/18/3 105/16/3 151/27/3 
f 151/27/3 152/29/3 106/18/3 
s 2
f 105/16/2 107/15/2 149/28/2 
f 149/28/2 151/27/2 105/16/2 
s 1
f 107/15/1 108/17/1 150/30/1 
f 150/30/1 149/28/1 107/15/1 
s 2
f 108/17/4 106/18/4 152/29/4 
f 152/29/4 150/30/4 108/17/4 
s 1
f 110/20/3 109/18/3 155/29/3 
f 155/29/3 156/4/3 110/20/3 
s 2
f 109/18/2 111/17/2 153/30/2 
f 153/30/2 155/29/2 109/18/2 
s 1
f 111/17/1 112/19/1 154/3/1 
f 154/3/1 153/30/1 111/17/1 
s 2
f 112/19/8 110/20/4 156/4/4 
f 156/4/4 154/3/8 112/19/8 
s 64
f 157/9/4 158/10/4 159/6/4 
f 159/6/4 160/5/4 157/9/4 
f 161/21/4 162/22/4 163/8/4 
f 163/8/4 164/7/4 161/21/4 
s 16
f 165/9/2 166/10/2 167/6/2 
f 167/6/2 168/5/2 165/9/2 
f 169/21/2 170/22/2 171/8/2 
f 171/8/2 172/7/2 169/21/2 
s off
f 13/34/5 30/9/5 157/9/5 
f 157/9/5 160/5/5 13/34/5 
f 30/22/1 29/21/1 158/10/1 
f 158/10/1 157/9/1 30/22/1 
f 29/22/6 14/31/6 159/6/6 
f 159/6/6 158/10/6 29/22/6 
f 14/6/3 13/5/3 160/5/3 
f 160/5/3 159/6/3 14/6/3 
f 15/32/6 40/21/6 161/21/6 
f 161/21/6 164/7/6 15/32/6 
f 40/10/3 39/9/3 162/22/3 
f 162/22/3 161/21/3 40/10/3 
f 39/10/5 16/33/5 163/8/5 
f 163/8/5 162/22/5 39/10/5 
f 16/8/1 15/7/1 164/7/1 
f 164/7/1 163/8/1 16/8/1 
f 5/32/5 52/21/5 165/9/5 
f 165/9/5 168/5/5 5/32/5 
f 52/22/3 51/21/3 166/10/3 
f 166/10/3 165/9/3 52/22/3 
f 51/10/6 6/33/6 167/6/6 
f 167/6/6 166/10/6 51/10/6 
f 6/6/1 5/5/1 168/5/1 
f 168/5/1 167/6/1 6/6/1 
f 7/34/6 18/9/6 169/21/6 
f 169/21/6 172/7/6 7/34/6 
f 18/10/1 17/9/1 170/22/1 
f 170/22/1 169/21/1 18/10/1 
f 17/22/5 8/31/5 171/8/5 
f 171/8/5 170/22/5 17/22/5 
f 8/8/3 7/7/3 172/7/3 
f 172/7/3 171/8/3 8/8/3 
# 388 faces

#
# object Tilebase119
#

v  -0.8000 -10.0000 -0.8000
v  -0.8000 -10.0000 0.8000
v  0.8000 -10.0000 0.8000
v  0.8000 -10.0000 -0.8000
v  -5.0000 -10.0000 5.0000
v  5.0000 -10.0000 5.0000
v  5.0000 0.0000 5.0000
v  -5.0000 0.0000 5.0000
v  5.0000 -10.0000 -5.0000
v  5.0000 0.0000 -5.0000
v  -5.0000 -10.0000 -5.0000
v  -5.0000 0.0000 -5.0000
v  4.0000 0.0000 4.0000
v  -4.0000 0.0000 4.0000
v  4.0000 0.0000 -4.0000
v  -4.0000 0.0000 -4.0000
v  4.0000 -10.0000 4.0000
v  2.4000 -10.0000 4.0000
v  0.8000 -10.0000 4.0000
v  -0.8000 -10.0000 4.0000
v  -2.4000 -10.0000 4.0000
v  -4.0000 -10.0000 4.0000
v  4.0000 -10.0000 -4.0000
v  4.0000 -10.0000 -2.4000
v  4.0000 -10.0000 -0.8000
v  4.0000 -10.0000 0.8000
v  4.0000 -10.0000 2.4000
v  -4.0000 -10.0000 -4.0000
v  -2.4000 -10.0000 -4.0000
v  -0.8000 -10.0000 -4.0000
v  0.8000 -10.0000 -4.0000
v  2.4000 -10.0000 -4.0000
v  -4.0000 -10.0000 2.4000
v  -4.0000 -10.0000 0.8000
v  -4.0000 -10.0000 -0.8000
v  -4.0000 -10.0000 -2.4000
v  -0.8000 -10.0000 -2.4000
v  0.8000 -10.0000 -2.4000
v  0.8000 -10.0000 2.4000
v  -0.8000 -10.0000 2.4000
v  -2.4000 -10.0000 0.8000
v  -2.4000 -10.0000 -0.8000
v  4.0000 -9.0000 0.8000
v  4.0000 -9.0000 -0.8000
v  2.4000 -9.0000 -0.8000
v  2.4000 -9.0000 0.8000
v  0.8000 -9.0000 -0.8000
v  0.8000 -9.0000 0.8000
v  -2.4000 -10.0000 -2.4000
v  4.0000 -8.0000 -2.4000
v  4.0000 -8.0000 -4.0000
v  2.4000 -8.0000 -4.0000
v  2.4000 -8.0000 -2.4000
v  2.4000 -9.0000 -2.4000
v  2.4000 -9.0000 -4.0000
v  0.8000 -9.0000 -4.0000
v  0.8000 -9.0000 -2.4000
v  4.0000 -9.0000 -2.4000
v  4.0000 -9.0000 4.0000
v  4.0000 -9.0000 2.4000
v  2.4000 -9.0000 2.4000
v  2.4000 -9.0000 4.0000
v  2.4000 -10.0000 2.4000
v  -2.4000 -10.0000 2.4000
v  2.4000 -10.0000 0.8000
v  4.0000 -9.0000 -4.0000
# 66 vertices

vn 0.0000 1.0000 -0.0000
vn 0.0000 0.0000 1.0000
vn 1.0000 0.0000 -0.0000
vn 0.0000 0.0000 -1.0000
vn -1.0000 0.0000 -0.0000
# 5 vertex normals

vt 0.4000 0.6000 0.0000
vt 0.4000 0.4000 0.0000
vt 0.6000 0.4000 0.0000
vt 0.6000 0.6000 0.0000
vt 0.0000 0.0000 0.0000
vt 1.0000 0.0000 0.0000
vt 1.0000 1.0000 0.0000
vt 0.0000 1.0000 0.0000
vt 0.8000 0.0000 0.0000
vt 0.6000 0.0000 0.0000
vt 0.4000 0.0000 0.0000
vt 0.2000 0.0000 0.0000
vt 1.0000 0.8000 0.0000
vt 1.0000 0.6000 0.0000
vt 1.0000 0.4000 0.0000
vt 1.0000 0.2000 0.0000
vt 0.2000 1.0000 0.0000
vt 0.4000 1.0000 0.0000
vt 0.6000 1.0000 0.0000
vt 0.8000 1.0000 0.0000
vt 0.0000 0.2000 0.0000
vt 0.0000 0.4000 0.0000
vt 0.0000 0.6000 0.0000
vt 0.0000 0.8000 0.0000
vt 0.4000 0.8000 0.0000
vt 0.6000 0.8000 0.0000
vt 0.6000 0.2000 0.0000
vt 0.4000 0.2000 0.0000
vt 0.2000 0.4000 0.0000
vt 0.2000 0.6000 0.0000
vt 0.8000 0.6000 0.0000
vt 0.8000 0.4000 0.0000
vt 0.2000 0.8000 0.0000
vt 0.8000 0.8000 0.0000
vt 0.8000 0.2000 0.0000
vt 0.2000 0.2000 0.0000
# 36 texture coords

g Tilebase119
usemtl wire_086086086
s 4
f 173/35/9 174/36/9 175/37/9 
f 175/37/9 176/38/9 173/35/9 
s 8
f 177/39/10 178/40/10 179/41/10 
f 179/41/10 180/42/10 177/39/10 
s 16
f 178/39/11 181/40/11 182/41/11 
f 182/41/11 179/42/11 178/39/11 
s 32
f 181/39/12 183/40/12 184/41/12 
f 184/41/12 182/42/12 181/39/12 
s 64
f 183/39/13 177/40/13 180/41/13 
f 180/41/13 184/42/13 183/39/13 
s off
f 180/42/9 179/41/9 185/40/9 
f 185/40/9 186/39/9 180/42/9 
f 179/42/9 182/41/9 187/41/9 
f 187/41/9 185/40/9 179/42/9 
f 182/42/9 184/41/9 188/42/9 
f 188/42/9 187/41/9 182/42/9 
f 184/42/9 180/41/9 186/39/9 
f 186/39/9 188/42/9 184/42/9 
f 186/39/12 185/40/12 189/40/12 
f 186/39/12 189/40/12 190/43/12 
f 186/39/12 190/43/12 191/44/12 
f 186/39/12 191/44/12 192/45/12 
f 186/39/12 192/45/12 193/46/12 
f 186/39/12 193/46/12 194/39/12 
f 185/40/13 187/41/13 195/41/13 
f 185/40/13 195/41/13 196/47/13 
f 185/40/13 196/47/13 197/48/13 
f 185/40/13 197/48/13 198/49/13 
f 185/40/13 198/49/13 199/50/13 
f 185/40/13 199/50/13 189/40/13 
f 187/41/10 188/42/10 200/42/10 
f 187/41/10 200/42/10 201/51/10 
f 187/41/10 201/51/10 202/52/10 
f 187/41/10 202/52/10 203/53/10 
f 187/41/10 203/53/10 204/54/10 
f 187/41/10 204/54/10 195/41/10 
f 188/42/11 186/39/11 194/39/11 
f 188/42/11 194/39/11 205/55/11 
f 188/42/11 205/55/11 206/56/11 
f 188/42/11 206/56/11 207/57/11 
f 188/42/11 207/57/11 208/58/11 
f 188/42/11 208/58/11 200/42/11 
s 4
f 202/52/9 209/59/9 210/60/9 
f 210/60/9 203/53/9 202/52/9 
f 209/59/9 173/35/9 176/38/9 
f 176/38/9 210/60/9 209/59/9 
f 191/44/9 211/61/9 212/62/9 
f 212/62/9 192/45/9 191/44/9 
f 211/61/9 175/37/9 174/36/9 
f 174/36/9 212/62/9 211/61/9 
f 207/57/9 206/56/9 213/63/9 
f 213/63/9 214/64/9 207/57/9 
f 214/64/9 213/63/9 174/36/9 
f 174/36/9 173/35/9 214/64/9 
f 215/49/9 216/48/9 217/65/9 
f 217/65/9 218/66/9 215/49/9 
f 218/66/9 217/65/9 219/38/9 
f 219/38/9 220/37/9 218/66/9 
f 200/42/9 208/58/9 221/67/9 
f 221/67/9 201/51/9 200/42/9 
f 201/51/9 221/67/9 209/59/9 
f 209/59/9 202/52/9 201/51/9 
f 222/47/9 223/41/9 224/54/9 
f 224/54/9 225/68/9 222/47/9 
f 226/68/9 227/54/9 228/53/9 
f 228/53/9 229/60/9 226/68/9 
f 208/58/9 207/57/9 214/64/9 
f 214/64/9 221/67/9 208/58/9 
f 221/67/9 214/64/9 173/35/9 
f 173/35/9 209/59/9 221/67/9 
f 216/48/9 230/47/9 226/68/9 
f 226/68/9 217/65/9 216/48/9 
f 217/65/9 226/68/9 229/60/9 
f 229/60/9 219/38/9 217/65/9 
f 231/40/9 232/50/9 233/69/9 
f 233/69/9 234/43/9 231/40/9 
f 190/43/9 235/69/9 211/61/9 
f 211/61/9 191/44/9 190/43/9 
f 205/55/9 194/39/9 193/46/9 
f 193/46/9 236/70/9 205/55/9 
f 236/70/9 193/46/9 192/45/9 
f 192/45/9 212/62/9 236/70/9 
f 232/50/9 215/49/9 218/66/9 
f 218/66/9 233/69/9 232/50/9 
f 235/69/9 237/66/9 175/37/9 
f 175/37/9 211/61/9 235/69/9 
f 206/56/9 205/55/9 236/70/9 
f 236/70/9 213/63/9 206/56/9 
f 213/63/9 236/70/9 212/62/9 
f 212/62/9 174/36/9 213/63/9 
s off
f 189/40/11 199/50/11 232/50/11 
f 232/50/11 231/40/11 189/40/11 
f 199/50/11 198/49/11 215/49/11 
f 215/49/11 232/50/11 199/50/11 
f 198/49/11 197/48/11 216/48/11 
f 216/48/11 215/49/11 198/49/11 
f 197/48/11 196/47/11 230/47/11 
f 230/47/11 216/48/11 197/48/11 
f 196/47/11 195/41/11 238/41/11 
f 238/41/11 230/47/11 196/47/11 
f 195/41/12 204/54/12 227/54/12 
f 227/54/12 238/41/12 195/41/12 
f 204/54/12 203/53/12 228/53/12 
f 228/53/12 227/54/12 204/54/12 
f 203/53/13 210/60/13 229/60/13 
f 229/60/13 228/53/13 203/53/13 
f 210/60/13 176/38/13 219/38/13 
f 219/38/13 229/60/13 210/60/13 
f 176/38/13 175/37/13 220/37/13 
f 220/37/13 219/38/13 176/38/13 
f 175/37/10 237/66/10 218/66/10 
f 218/66/10 220/37/10 175/37/10 
f 237/66/13 235/69/13 233/69/13 
f 233/69/13 218/66/13 237/66/13 
f 235/69/13 190/43/13 234/43/13 
f 234/43/13 233/69/13 235/69/13 
f 190/43/10 189/40/10 231/40/10 
f 231/40/10 234/43/10 190/43/10 
f 226/68/10 230/47/10 222/47/10 
f 222/47/10 225/68/10 226/68/10 
f 230/47/11 238/41/11 223/41/11 
f 223/41/11 222/47/11 230/47/11 
f 238/41/12 227/54/12 224/54/12 
f 224/54/12 223/41/12 238/41/12 
f 227/54/13 226/68/13 225/68/13 
f 225/68/13 224/54/13 227/54/13 
# 126 faces

