# 3ds Max Wavefront OBJ Exporter v0.97b - (c)2007 guruware
# File Created: 10.09.2014 16:26:24

mtllib Road3.mtl

#
# object Road3
#

v  5.0000 0.0000 -2.3437
v  5.0000 2.2000 -2.3437
v  5.0000 2.2000 2.3438
v  5.0000 0.0000 2.3438
v  2.3437 0.0000 2.3438
v  2.3438 0.0000 -2.3437
v  2.3438 0.2000 -2.3437
v  2.3437 0.2000 2.3438
# 8 vertices

vn 1.0000 0.0000 0.0000
vn 0.0000 -1.0000 -0.0000
vn -0.6015 0.7989 -0.0000
vn 0.0000 0.0000 -1.0000
vn -0.0000 0.0000 -1.0000
vn -1.0000 0.0000 -0.0000
vn -0.0000 -0.0000 1.0000
vn -0.0000 0.0000 1.0000
# 8 vertex normals

vt 0.7344 0.0000 0.0000
vt 0.7344 1.0000 0.0000
vt 0.2656 1.0000 0.0000
vt 0.2656 0.0000 0.0000
vt 0.7344 0.2656 0.0000
vt 0.2656 0.2656 0.0000
# 6 texture coords

g Road3
usemtl wire_086086086
s 8
f 1/1/1 2/2/1 3/3/1 
f 3/3/1 4/4/1 1/1/1 
s 2
f 4/1/2 5/5/2 6/6/2 
f 6/6/2 1/4/2 4/1/2 
s 4
f 2/1/3 7/5/3 8/6/3 
f 8/6/3 3/4/3 2/1/3 
s 1
f 2/4/4 1/4/4 6/4/5 
f 6/4/5 7/2/5 2/4/4 
s 16
f 7/2/6 6/4/6 5/1/6 
f 5/1/6 8/3/6 7/2/6 
s 1
f 8/3/7 5/1/7 4/1/7 
f 4/1/7 3/1/8 8/3/7 
# 12 faces

