# 3ds Max Wavefront OBJ Exporter v0.97b - (c)2007 guruware
# File Created: 16.08.2014 15:57:03

mtllib Road1.mtl

#
# object Road1
#

v  5.0000 0.0000 -2.3438
v  5.0000 0.2000 -2.3438
v  5.0000 0.2000 2.3437
v  5.0000 0.0000 2.3437
v  2.3438 0.0000 2.3438
v  2.3438 0.0000 -2.3438
v  2.3438 0.2000 -2.3437
v  2.3438 0.2000 2.3438
# 8 vertices

vn 1.0000 0.0000 -0.0000
vn 0.0000 -1.0000 -0.0000
vn 0.0000 1.0000 -0.0000
vn -0.0000 0.0000 -1.0000
vn -1.0000 0.0000 0.0000
vn 0.0000 -0.0000 1.0000
vn 0.0000 0.0000 1.0000
# 7 vertex normals

vt 0.7344 0.0000 0.0000
vt 0.7344 1.0000 0.0000
vt 0.2656 1.0000 0.0000
vt 0.2656 0.0000 0.0000
vt 0.7344 0.2656 0.0000
vt 0.2656 0.2656 0.0000
# 6 texture coords

g Road1
usemtl wire_086086086
s 8
f 1/1/1 2/2/1 3/3/1 
f 3/3/1 4/4/1 1/1/1 
s 2
f 4/1/2 5/5/2 6/6/2 
f 6/6/2 1/4/2 4/1/2 
s 4
f 2/1/3 7/5/3 8/6/3 
f 8/6/3 3/4/3 2/1/3 
s 1
f 2/4/4 1/4/4 6/4/4 
f 6/4/4 7/2/4 2/4/4 
s 16
f 7/2/5 6/4/5 5/1/5 
f 5/1/5 8/3/5 7/2/5 
s 1
f 8/3/6 5/1/6 4/1/6 
f 4/1/6 3/1/7 8/3/6 
# 12 faces

