# 3ds Max Wavefront OBJ Exporter v0.97b - (c)2007 guruware
# File Created: 16.08.2014 15:56:45

mtllib Road0.mtl

#
# object RoadBase
#

v  2.3438 0.0000 -2.3438
v  2.3438 0.0000 2.3438
v  -2.3438 0.0000 2.3438
v  -2.3438 0.0000 -2.3438
v  -2.3438 0.2000 -2.3438
v  -2.3438 0.2000 2.3438
v  2.3438 0.2000 2.3438
v  2.3438 0.2000 -2.3438
# 8 vertices

vn 0.0000 -1.0000 -0.0000
vn 0.0000 1.0000 -0.0000
vn 0.0000 0.0000 -1.0000
vn -1.0000 0.0000 -0.0000
vn 0.0000 0.0000 1.0000
vn 1.0000 0.0000 -0.0000
# 6 vertex normals

vt 0.2656 0.7344 0.0000
vt 0.2656 0.2656 0.0000
vt 0.7344 0.2656 0.0000
vt 0.7344 0.7344 0.0000
# 4 texture coords

g RoadBase
usemtl wire_086086086
s 2
f 1/1/1 2/2/1 3/3/1 
f 3/3/1 4/4/1 1/1/1 
s 4
f 5/1/2 6/2/2 7/3/2 
f 7/3/2 8/4/2 5/1/2 
s off
f 1/1/3 4/4/3 5/1/3 
f 5/1/3 8/4/3 1/1/3 
f 4/4/4 3/3/4 6/2/4 
f 6/2/4 5/1/4 4/4/4 
f 3/3/5 2/2/5 7/3/5 
f 7/3/5 6/2/5 3/3/5 
f 1/1/6 8/4/6 7/3/6 
f 7/3/6 2/2/6 1/1/6 
# 12 faces

#
# object Tilebase005
#

v  -5.0000 -1.0000 5.0000
v  -5.0000 -1.0000 -5.0000
v  5.0000 -1.0000 -5.0000
v  5.0000 -1.0000 5.0000
v  -5.0000 0.0000 5.0000
v  5.0000 0.0000 5.0000
v  5.0000 0.0000 -5.0000
v  -5.0000 0.0000 -5.0000
# 8 vertices

vn 0.0000 -1.0000 -0.0000
vn 0.0000 1.0000 -0.0000
vn 0.0000 0.0000 1.0000
vn 1.0000 0.0000 -0.0000
vn 0.0000 0.0000 -1.0000
vn -1.0000 0.0000 -0.0000
# 6 vertex normals

vt 1.0000 0.0000 0.0000
vt 1.0000 1.0000 0.0000
vt 0.0000 1.0000 0.0000
vt 0.0000 0.0000 0.0000
# 4 texture coords

g Tilebase005
usemtl wire_061135006
s 1
f 9/5/7 10/6/7 11/7/7 
f 11/7/7 12/8/7 9/5/7 
f 13/8/8 14/5/8 15/6/8 
f 15/6/8 16/7/8 13/8/8 
f 9/8/9 12/5/9 14/6/9 
f 14/6/9 13/7/9 9/8/9 
f 12/8/10 11/5/10 15/6/10 
f 15/6/10 14/7/10 12/8/10 
f 11/8/11 10/5/11 16/6/11 
f 16/6/11 15/7/11 11/8/11 
f 10/8/12 9/5/12 13/6/12 
f 13/6/12 16/7/12 10/8/12 
# 12 faces

