# 3ds Max Wavefront OBJ Exporter v0.97b - (c)2007 guruware
# File Created: 02.08.2014 19:15:14

mtllib wall.mtl

#
# object Tilebase100
#

v  -5.000000 -1.000000 5.000000
v  -5.000000 -1.000000 -5.000000
v  5.000000 -1.000000 -5.000000
v  5.000000 -1.000000 5.000000
v  -5.000000 0.000000 5.000000
v  5.000000 0.000000 5.000000
v  5.000000 0.000000 -5.000000
v  -5.000000 0.000000 -5.000000
# 8 vertices

vn 0.000000 -1.000000 -0.000000
vn 0.000000 1.000000 -0.000000
vn 0.000000 0.000000 1.000000
vn 1.000000 0.000000 -0.000000
vn 0.000000 0.000000 -1.000000
vn -1.000000 0.000000 -0.000000
# 6 vertex normals

vt 1.000000 0.000000 0.000000
vt 1.000000 1.000000 0.000000
vt 0.000000 1.000000 0.000000
vt 0.000000 0.000000 0.000000
# 4 texture coords

g Tilebase100
usemtl wire_061135006
f 1/1/1 2/2/1 3/3/1 
f 3/3/1 4/4/1 1/1/1 
f 5/4/2 6/1/2 7/2/2 
f 7/2/2 8/3/2 5/4/2 
f 1/4/3 4/1/3 6/2/3 
f 6/2/3 5/3/3 1/4/3 
f 4/4/4 3/1/4 7/2/4 
f 7/2/4 6/3/4 4/4/4 
f 3/4/5 2/1/5 8/2/5 
f 8/2/5 7/3/5 3/4/5 
f 2/4/6 1/1/6 5/2/6 
f 5/2/6 8/3/6 2/4/6 
# 12 faces

#
# object Box001
#

v  1.500000 0.000000 5.000000
v  -1.500000 0.000000 5.000000
v  -1.500000 0.000000 -5.000000
v  1.500000 0.000000 -5.000000
v  1.500000 5.000000 5.000000
v  1.500000 5.000000 -5.000000
v  -1.500000 5.000000 -5.000000
v  -1.500000 5.000000 5.000000
# 8 vertices

vn 0.000000 -1.000000 -0.000000
vn 0.000000 1.000000 -0.000000
vn 1.000000 0.000000 -0.000000
vn -0.000000 0.000000 -1.000000
vn -1.000000 0.000000 0.000000
vn 0.000000 0.000000 1.000000
# 6 vertex normals

vt 1.000000 0.000000 0.000000
vt 1.000000 1.000000 0.000000
vt 0.000000 1.000000 0.000000
vt 0.000000 0.000000 0.000000
# 4 texture coords

g Box001
usemtl wallMaterial
f 9/5/7 10/6/7 11/7/7 
f 11/7/7 12/8/7 9/5/7 
f 13/8/8 14/5/8 15/6/8 
f 15/6/8 16/7/8 13/8/8 
f 9/8/9 12/5/9 14/6/9 
f 14/6/9 13/7/9 9/8/9 
f 12/8/10 11/5/10 15/6/10 
f 15/6/10 14/7/10 12/8/10 
f 11/8/11 10/5/11 16/6/11 
f 16/6/11 15/7/11 11/8/11 
f 10/8/12 9/5/12 13/6/12 
f 13/6/12 16/7/12 10/8/12 
# 12 faces

#
# object Box002
#

v  -5.000000 0.000000 1.500000
v  -5.000000 0.000000 -1.500000
v  5.000000 0.000000 -1.500000
v  5.000000 0.000000 1.500000
v  -5.000000 5.000000 1.500000
v  5.000000 5.000000 1.500000
v  5.000000 5.000000 -1.500000
v  -5.000000 5.000000 -1.500000
# 8 vertices

vn 0.000000 -1.000000 -0.000000
vn 0.000000 1.000000 -0.000000
vn 0.000000 0.000000 1.000000
vn 1.000000 0.000000 -0.000000
vn 0.000000 0.000000 -1.000000
vn -1.000000 0.000000 -0.000000
# 6 vertex normals

vt 1.000000 0.000000 0.000000
vt 1.000000 1.000000 0.000000
vt 0.000000 1.000000 0.000000
vt 0.000000 0.000000 0.000000
# 4 texture coords

g Box002
usemtl wallMaterial
f 17/9/13 18/10/13 19/11/13 
f 19/11/13 20/12/13 17/9/13 
f 21/12/14 22/9/14 23/10/14 
f 23/10/14 24/11/14 21/12/14 
f 17/12/15 20/9/15 22/10/15 
f 22/10/15 21/11/15 17/12/15 
f 20/12/16 19/9/16 23/10/16 
f 23/10/16 22/11/16 20/12/16 
f 19/12/17 18/9/17 24/10/17 
f 24/10/17 23/11/17 19/12/17 
f 18/12/18 17/9/18 21/10/18 
f 21/10/18 24/11/18 18/12/18 
# 12 faces

#
# object Box012
#

v  -1.499990 4.997818 -5.000000
v  -1.000009 5.002182 -5.000000
v  -1.000009 5.002182 -4.000000
v  -1.499990 4.997818 -4.000000
v  -1.504354 5.497799 -5.000000
v  -1.504354 5.497799 -4.000000
v  -1.004373 5.502162 -4.000000
v  -1.004373 5.502162 -5.000000
v  -1.500000 5.000000 -2.996627
v  -1.000000 5.000000 -2.996627
v  -1.000000 5.000000 -0.996627
v  -1.500000 5.000000 -0.996627
v  -1.500000 5.500000 -2.996627
v  -1.500000 5.500000 -0.996627
v  -1.000000 5.500000 -0.996627
v  -1.000000 5.500000 -2.996627
v  -0.999815 5.000000 -1.503106
v  -0.999815 5.000000 -1.003106
v  -2.999815 5.000000 -1.003106
v  -2.999815 5.000000 -1.503106
v  -0.999815 5.500000 -1.503106
v  -2.999815 5.500000 -1.503106
v  -2.999815 5.500000 -1.003106
v  -0.999815 5.500000 -1.003106
v  -4.000000 4.997818 -1.499991
v  -4.000000 5.002182 -1.000010
v  -5.000000 5.002182 -1.000010
v  -5.000000 4.997818 -1.499991
v  -4.000000 5.497799 -1.504354
v  -5.000000 5.497799 -1.504354
v  -5.000000 5.502162 -1.004373
v  -4.000000 5.502163 -1.004373
# 32 vertices

vn 0.008727 -0.999962 0.000000
vn -0.008727 0.999962 -0.000000
vn -0.999962 -0.008727 -0.000000
vn -0.000000 0.000000 1.000000
vn 0.999962 0.008727 0.000000
vn 0.000000 0.000000 -1.000000
vn 0.000000 -1.000000 0.000000
vn -0.000000 1.000000 -0.000000
vn -1.000000 0.000000 -0.000000
vn 1.000000 0.000000 0.000000
vn 0.000000 -0.999848 0.017451
vn -0.000000 -0.999848 0.017451
vn 0.000000 0.999848 -0.017451
vn 0.000000 -0.004363 -0.999990
vn -1.000000 -0.000000 0.000000
vn -0.000000 0.004363 0.999990
vn 1.000000 0.000000 -0.000000
# 17 vertex normals

vt 1.000000 0.000000 0.000000
vt 1.000000 1.000000 0.000000
vt 0.000000 1.000000 0.000000
vt 0.000000 0.000000 0.000000
# 4 texture coords

g Box012
usemtl wallMaterial
f 25/13/19 26/14/19 27/15/19 
f 27/15/19 28/16/19 25/13/19 
f 29/16/20 30/13/20 31/14/20 
f 31/14/20 32/15/20 29/16/20 
f 25/16/21 28/13/21 30/14/21 
f 30/14/21 29/15/21 25/16/21 
f 28/16/22 27/13/22 31/14/22 
f 31/14/22 30/15/22 28/16/22 
f 27/16/23 26/13/23 32/14/23 
f 32/14/23 31/15/23 27/16/23 
f 26/16/24 25/13/24 29/14/24 
f 29/14/24 32/15/24 26/16/24 
f 33/13/25 34/14/25 35/15/25 
f 35/15/25 36/16/25 33/13/25 
f 37/16/26 38/13/26 39/14/26 
f 39/14/26 40/15/26 37/16/26 
f 33/16/27 36/13/27 38/14/27 
f 38/14/27 37/15/27 33/16/27 
f 36/16/22 35/13/22 39/14/22 
f 39/14/22 38/15/22 36/16/22 
f 35/16/28 34/13/28 40/14/28 
f 40/14/28 39/15/28 35/16/28 
f 34/16/24 33/13/24 37/14/24 
f 37/14/24 40/15/24 34/16/24 
f 41/13/25 42/14/25 43/15/25 
f 43/15/25 44/16/25 41/13/25 
f 45/16/26 46/13/26 47/14/26 
f 47/14/26 48/15/26 45/16/26 
f 41/16/24 44/13/24 46/14/24 
f 46/14/24 45/15/24 41/16/24 
f 44/16/27 43/13/27 47/14/27 
f 47/14/27 46/15/27 44/16/27 
f 43/16/22 42/13/22 48/14/22 
f 48/14/22 47/15/22 43/16/22 
f 42/16/28 41/13/28 45/14/28 
f 45/14/28 48/15/28 42/16/28 
f 49/13/29 50/14/30 51/15/29 
f 51/15/29 52/16/30 49/13/29 
f 53/16/31 54/13/31 55/14/31 
f 55/14/31 56/15/31 53/16/31 
f 49/16/32 52/13/32 54/14/32 
f 54/14/32 53/15/32 49/16/32 
f 52/16/33 51/13/33 55/14/33 
f 55/14/33 54/15/33 52/16/33 
f 51/16/34 50/13/34 56/14/34 
f 56/14/34 55/15/34 51/16/34 
f 50/16/35 49/13/35 53/14/35 
f 53/14/35 56/15/35 50/16/35 
# 48 faces

#
# object Box013
#

v  -5.000000 4.997818 1.499991
v  -5.000000 5.002182 1.000010
v  -4.000000 5.002182 1.000010
v  -4.000000 4.997818 1.499991
v  -5.000000 5.497799 1.504354
v  -4.000000 5.497799 1.504354
v  -4.000000 5.502162 1.004373
v  -5.000000 5.502162 1.004373
v  -2.996627 5.000000 1.500000
v  -2.996627 5.000000 1.000000
v  -0.996627 5.000000 1.000000
v  -0.996627 5.000000 1.500000
v  -2.996627 5.500000 1.500000
v  -0.996627 5.500000 1.500000
v  -0.996627 5.500000 1.000000
v  -2.996627 5.500000 1.000000
v  -1.503106 5.000000 0.999815
v  -1.003106 5.000000 0.999815
v  -1.003106 5.000000 2.999815
v  -1.503106 5.000000 2.999815
v  -1.503106 5.500000 0.999815
v  -1.503106 5.500000 2.999815
v  -1.003106 5.500000 2.999815
v  -1.003106 5.500000 0.999815
v  -1.499990 4.997818 4.000000
v  -1.000010 5.002182 4.000000
v  -1.000010 5.002182 5.000000
v  -1.499990 4.997818 5.000000
v  -1.504354 5.497799 4.000000
v  -1.504354 5.497799 5.000000
v  -1.004373 5.502162 5.000000
v  -1.004373 5.502163 4.000000
# 32 vertices

vn 0.000000 -0.999962 -0.008727
vn 0.000000 0.999962 0.008727
vn 0.000000 -0.008727 0.999962
vn 1.000000 0.000000 -0.000000
vn 0.000000 0.008727 -0.999962
vn -1.000000 0.000000 -0.000000
vn 0.000000 -1.000000 -0.000000
vn 0.000000 1.000000 0.000000
vn 0.000000 0.000000 1.000000
vn 0.000000 0.000000 -1.000000
vn 0.017451 -0.999848 -0.000000
vn -0.017451 0.999848 -0.000000
vn -0.999990 -0.004363 0.000000
vn -0.999990 -0.004363 -0.000000
vn 0.000000 -0.000000 1.000000
vn 0.999990 0.004363 -0.000000
vn 0.999990 0.004363 0.000000
vn -0.000000 0.000000 -1.000000
# 18 vertex normals

vt 1.000000 0.000000 0.000000
vt 1.000000 1.000000 0.000000
vt 0.000000 1.000000 0.000000
vt 0.000000 0.000000 0.000000
# 4 texture coords

g Box013
usemtl wallMaterial
f 57/17/36 58/18/36 59/19/36 
f 59/19/36 60/20/36 57/17/36 
f 61/20/37 62/17/37 63/18/37 
f 63/18/37 64/19/37 61/20/37 
f 57/20/38 60/17/38 62/18/38 
f 62/18/38 61/19/38 57/20/38 
f 60/20/39 59/17/39 63/18/39 
f 63/18/39 62/19/39 60/20/39 
f 59/20/40 58/17/40 64/18/40 
f 64/18/40 63/19/40 59/20/40 
f 58/20/41 57/17/41 61/18/41 
f 61/18/41 64/19/41 58/20/41 
f 65/17/42 66/18/42 67/19/42 
f 67/19/42 68/20/42 65/17/42 
f 69/20/43 70/17/43 71/18/43 
f 71/18/43 72/19/43 69/20/43 
f 65/20/44 68/17/44 70/18/44 
f 70/18/44 69/19/44 65/20/44 
f 68/20/39 67/17/39 71/18/39 
f 71/18/39 70/19/39 68/20/39 
f 67/20/45 66/17/45 72/18/45 
f 72/18/45 71/19/45 67/20/45 
f 66/20/41 65/17/41 69/18/41 
f 69/18/41 72/19/41 66/20/41 
f 73/17/42 74/18/42 75/19/42 
f 75/19/42 76/20/42 73/17/42 
f 77/20/43 78/17/43 79/18/43 
f 79/18/43 80/19/43 77/20/43 
f 73/20/41 76/17/41 78/18/41 
f 78/18/41 77/19/41 73/20/41 
f 76/20/44 75/17/44 79/18/44 
f 79/18/44 78/19/44 76/20/44 
f 75/20/39 74/17/39 80/18/39 
f 80/18/39 79/19/39 75/20/39 
f 74/20/45 73/17/45 77/18/45 
f 77/18/45 80/19/45 74/20/45 
f 81/17/46 82/18/46 83/19/46 
f 83/19/46 84/20/46 81/17/46 
f 85/20/47 86/17/47 87/18/47 
f 87/18/47 88/19/47 85/20/47 
f 81/20/48 84/17/49 86/18/49 
f 86/18/49 85/19/48 81/20/48 
f 84/20/50 83/17/50 87/18/50 
f 87/18/50 86/19/50 84/20/50 
f 83/20/51 82/17/52 88/18/52 
f 88/18/52 87/19/51 83/20/51 
f 82/20/53 81/17/53 85/18/53 
f 85/18/53 88/19/53 82/20/53 
# 48 faces

#
# object Box014
#

v  1.499991 4.997818 5.000000
v  1.000010 5.002182 5.000000
v  1.000010 5.002182 4.000000
v  1.499991 4.997818 4.000000
v  1.504354 5.497799 5.000000
v  1.504354 5.497799 4.000000
v  1.004373 5.502162 4.000000
v  1.004373 5.502162 5.000000
v  1.500000 5.000000 2.996627
v  1.000000 5.000000 2.996627
v  1.000000 5.000000 0.996627
v  1.500000 5.000000 0.996627
v  1.500000 5.500000 2.996627
v  1.500000 5.500000 0.996627
v  1.000000 5.500000 0.996627
v  1.000000 5.500000 2.996627
v  0.999815 5.000000 1.503106
v  0.999815 5.000000 1.003106
v  2.999815 5.000000 1.003106
v  2.999815 5.000000 1.503106
v  0.999815 5.500000 1.503106
v  2.999815 5.500000 1.503106
v  2.999815 5.500000 1.003106
v  0.999815 5.500000 1.003106
v  4.000000 4.997818 1.499990
v  4.000000 5.002182 1.000009
v  5.000000 5.002182 1.000009
v  5.000000 4.997818 1.499990
v  4.000000 5.497799 1.504354
v  5.000000 5.497799 1.504354
v  5.000000 5.502162 1.004373
v  4.000000 5.502163 1.004373
# 32 vertices

vn -0.008727 -0.999962 0.000000
vn 0.008727 0.999962 -0.000000
vn 0.999962 -0.008727 -0.000000
vn -0.000000 0.000000 -1.000000
vn -0.999962 0.008727 0.000000
vn 0.000000 0.000000 1.000000
vn 0.000000 -1.000000 0.000000
vn 0.000000 1.000000 -0.000000
vn 1.000000 0.000000 -0.000000
vn -1.000000 0.000000 0.000000
vn -0.000000 -1.000000 0.000000
vn -0.000000 -0.999848 -0.017451
vn -0.000000 0.999848 0.017451
vn 0.000000 -0.004363 0.999990
vn 1.000000 -0.000000 -0.000000
vn -0.000000 0.004363 -0.999990
# 16 vertex normals

vt 1.000000 0.000000 0.000000
vt 1.000000 1.000000 0.000000
vt 0.000000 1.000000 0.000000
vt 0.000000 0.000000 0.000000
# 4 texture coords

g Box014
usemtl wallMaterial
f 89/21/54 90/22/54 91/23/54 
f 91/23/54 92/24/54 89/21/54 
f 93/24/55 94/21/55 95/22/55 
f 95/22/55 96/23/55 93/24/55 
f 89/24/56 92/21/56 94/22/56 
f 94/22/56 93/23/56 89/24/56 
f 92/24/57 91/21/57 95/22/57 
f 95/22/57 94/23/57 92/24/57 
f 91/24/58 90/21/58 96/22/58 
f 96/22/58 95/23/58 91/24/58 
f 90/24/59 89/21/59 93/22/59 
f 93/22/59 96/23/59 90/24/59 
f 97/21/60 98/22/60 99/23/60 
f 99/23/60 100/24/60 97/21/60 
f 101/24/61 102/21/61 103/22/61 
f 103/22/61 104/23/61 101/24/61 
f 97/24/62 100/21/62 102/22/62 
f 102/22/62 101/23/62 97/24/62 
f 100/24/57 99/21/57 103/22/57 
f 103/22/57 102/23/57 100/24/57 
f 99/24/63 98/21/63 104/22/63 
f 104/22/63 103/23/63 99/24/63 
f 98/24/59 97/21/59 101/22/59 
f 101/22/59 104/23/59 98/24/59 
f 105/21/64 106/22/64 107/23/64 
f 107/23/64 108/24/64 105/21/64 
f 109/24/61 110/21/61 111/22/61 
f 111/22/61 112/23/61 109/24/61 
f 105/24/59 108/21/59 110/22/59 
f 110/22/59 109/23/59 105/24/59 
f 108/24/62 107/21/62 111/22/62 
f 111/22/62 110/23/62 108/24/62 
f 107/24/57 106/21/57 112/22/57 
f 112/22/57 111/23/57 107/24/57 
f 106/24/63 105/21/63 109/22/63 
f 109/22/63 112/23/63 106/24/63 
f 113/21/65 114/22/65 115/23/65 
f 115/23/65 116/24/65 113/21/65 
f 117/24/66 118/21/66 119/22/66 
f 119/22/66 120/23/66 117/24/66 
f 113/24/67 116/21/67 118/22/67 
f 118/22/67 117/23/67 113/24/67 
f 116/24/68 115/21/68 119/22/68 
f 119/22/68 118/23/68 116/24/68 
f 115/24/69 114/21/69 120/22/69 
f 120/22/69 119/23/69 115/24/69 
f 114/24/63 113/21/63 117/22/63 
f 117/22/63 120/23/63 114/24/63 
# 48 faces

#
# object Box015
#

v  5.000000 4.997818 -1.499991
v  5.000000 5.002182 -1.000010
v  4.000000 5.002182 -1.000010
v  4.000000 4.997818 -1.499991
v  5.000000 5.497799 -1.504354
v  4.000000 5.497799 -1.504354
v  4.000000 5.502162 -1.004373
v  5.000000 5.502162 -1.004373
v  2.996627 5.000000 -1.500000
v  2.996627 5.000000 -1.000000
v  0.996627 5.000000 -1.000000
v  0.996627 5.000000 -1.500000
v  2.996627 5.500000 -1.500000
v  0.996627 5.500000 -1.500000
v  0.996627 5.500000 -1.000000
v  2.996627 5.500000 -1.000000
v  1.503106 5.000000 -0.999815
v  1.003106 5.000000 -0.999815
v  1.003106 5.000000 -2.999815
v  1.503106 5.000000 -2.999815
v  1.503106 5.500000 -0.999815
v  1.503106 5.500000 -2.999815
v  1.003106 5.500000 -2.999815
v  1.003106 5.500000 -0.999815
v  1.499990 4.997818 -4.000001
v  1.000009 5.002182 -4.000000
v  1.000009 5.002182 -5.000000
v  1.499990 4.997818 -5.000000
v  1.504354 5.497799 -4.000000
v  1.504354 5.497799 -5.000000
v  1.004373 5.502162 -5.000000
v  1.004373 5.502163 -4.000000
# 32 vertices

vn 0.000000 -0.999962 0.008727
vn -0.000000 0.999962 -0.008727
vn -0.000000 -0.008727 -0.999962
vn -1.000000 0.000000 0.000000
vn 0.000000 0.008727 0.999962
vn 1.000000 0.000000 -0.000000
vn 0.000000 -1.000000 -0.000000
vn -0.000000 1.000000 -0.000000
vn -0.000000 0.000000 -1.000000
vn 0.000000 0.000000 1.000000
vn 0.000000 -1.000000 0.000000
vn -0.017451 -0.999848 0.000000
vn 0.017451 0.999848 0.000000
vn 0.999990 -0.004363 -0.000000
vn -0.000000 -0.000000 -1.000000
vn -0.999990 0.004363 0.000000
# 16 vertex normals

vt 1.000000 0.000000 0.000000
vt 1.000000 1.000000 0.000000
vt 0.000000 1.000000 0.000000
vt 0.000000 0.000000 0.000000
# 4 texture coords

g Box015
usemtl wallMaterial
f 121/25/70 122/26/70 123/27/70 
f 123/27/70 124/28/70 121/25/70 
f 125/28/71 126/25/71 127/26/71 
f 127/26/71 128/27/71 125/28/71 
f 121/28/72 124/25/72 126/26/72 
f 126/26/72 125/27/72 121/28/72 
f 124/28/73 123/25/73 127/26/73 
f 127/26/73 126/27/73 124/28/73 
f 123/28/74 122/25/74 128/26/74 
f 128/26/74 127/27/74 123/28/74 
f 122/28/75 121/25/75 125/26/75 
f 125/26/75 128/27/75 122/28/75 
f 129/25/76 130/26/76 131/27/76 
f 131/27/76 132/28/76 129/25/76 
f 133/28/77 134/25/77 135/26/77 
f 135/26/77 136/27/77 133/28/77 
f 129/28/78 132/25/78 134/26/78 
f 134/26/78 133/27/78 129/28/78 
f 132/28/73 131/25/73 135/26/73 
f 135/26/73 134/27/73 132/28/73 
f 131/28/79 130/25/79 136/26/79 
f 136/26/79 135/27/79 131/28/79 
f 130/28/75 129/25/75 133/26/75 
f 133/26/75 136/27/75 130/28/75 
f 137/25/80 138/26/80 139/27/80 
f 139/27/80 140/28/80 137/25/80 
f 141/28/77 142/25/77 143/26/77 
f 143/26/77 144/27/77 141/28/77 
f 137/28/75 140/25/75 142/26/75 
f 142/26/75 141/27/75 137/28/75 
f 140/28/78 139/25/78 143/26/78 
f 143/26/78 142/27/78 140/28/78 
f 139/28/73 138/25/73 144/26/73 
f 144/26/73 143/27/73 139/28/73 
f 138/28/79 137/25/79 141/26/79 
f 141/26/79 144/27/79 138/28/79 
f 145/25/81 146/26/81 147/27/81 
f 147/27/81 148/28/81 145/25/81 
f 149/28/82 150/25/82 151/26/82 
f 151/26/82 152/27/82 149/28/82 
f 145/28/83 148/25/83 150/26/83 
f 150/26/83 149/27/83 145/28/83 
f 148/28/84 147/25/84 151/26/84 
f 151/26/84 150/27/84 148/28/84 
f 147/28/85 146/25/85 152/26/85 
f 152/26/85 151/27/85 147/28/85 
f 146/28/79 145/25/79 149/26/79 
f 149/26/79 152/27/79 146/28/79 
# 48 faces

