# 3ds Max Wavefront OBJ Exporter v0.97b - (c)2007 guruware
# File Created: 16.08.2014 16:38:18

mtllib Woodworker0.mtl

#
# object Cylinder039
#

v  -1.1784 6.3250 -0.7335
v  -1.0842 6.2590 -0.8299
v  -1.0555 6.2389 -0.7335
v  -1.1570 6.3100 -0.8812
v  -1.2398 6.3680 -0.8634
v  -1.2938 6.4058 -0.7848
v  -1.2938 6.4058 -0.6822
v  -1.2398 6.3680 -0.6036
v  -1.1570 6.3100 -0.5857
v  -1.0842 6.2590 -0.6370
v  0.6365 8.7165 -0.8299
v  0.6652 8.6964 -0.7335
v  0.5637 8.7675 -0.8812
v  0.4809 8.8254 -0.8634
v  0.4269 8.8633 -0.7848
v  0.4269 8.8633 -0.6822
v  0.4809 8.8254 -0.6036
v  0.5637 8.7675 -0.5857
v  0.6365 8.7165 -0.6370
v  0.5424 8.7824 -0.7335
# 20 vertices

vn -0.5736 -0.8192 -0.0000
vn 0.8192 -0.5736 0.0000
vn 0.6275 -0.4394 -0.6428
vn 0.1422 -0.0996 -0.9848
vn -0.4096 0.2868 -0.8660
vn -0.7698 0.5390 -0.3420
vn -0.7698 0.5390 0.3420
vn -0.4096 0.2868 0.8660
vn 0.1422 -0.0996 0.9848
vn 0.6275 -0.4394 0.6428
vn 0.5736 0.8192 -0.0000
# 11 vertex normals

vt 0.5000 0.0000 0.0000
vt 0.8611 0.0000 1.0000
vt 0.7500 0.0000 1.0000
vt 0.9722 0.0000 1.0000
vt 0.0833 0.0000 1.0000
vt -0.0278 0.0000 1.0000
vt 0.1944 0.0000 1.0000
vt 0.3056 0.0000 1.0000
vt 0.4167 0.0000 1.0000
vt 0.5278 0.0000 1.0000
vt 0.6389 0.0000 1.0000
vt 0.8611 1.0000 1.0000
vt 0.7500 1.0000 1.0000
vt 0.9722 1.0000 1.0000
vt 0.0833 1.0000 1.0000
vt -0.0278 1.0000 1.0000
vt 0.1944 1.0000 1.0000
vt 0.3056 1.0000 1.0000
vt 0.4167 1.0000 1.0000
vt 0.5278 1.0000 1.0000
vt 0.6389 1.0000 1.0000
vt 0.5000 1.0000 0.0000
# 22 texture coords

g Cylinder039
usemtl wire_038021002
s 1
f 1/1/1 2/2/1 3/3/1 
f 1/1/1 4/4/1 2/2/1 
f 1/1/1 5/5/1 4/6/1 
f 1/1/1 6/7/1 5/5/1 
f 1/1/1 7/8/1 6/7/1 
f 1/1/1 8/9/1 7/8/1 
f 1/1/1 9/10/1 8/9/1 
f 1/1/1 10/11/1 9/10/1 
f 1/1/1 3/3/1 10/11/1 
s 8
f 3/3/2 11/12/3 12/13/2 
f 3/3/2 2/2/3 11/12/3 
f 2/2/3 13/14/4 11/12/3 
f 2/2/3 4/4/4 13/14/4 
f 4/6/4 14/15/5 13/16/4 
f 4/6/4 5/5/5 14/15/5 
f 5/5/5 15/17/6 14/15/5 
f 5/5/5 6/7/6 15/17/6 
f 6/7/6 16/18/7 15/17/6 
f 6/7/6 7/8/7 16/18/7 
f 7/8/7 17/19/8 16/18/7 
f 7/8/7 8/9/8 17/19/8 
f 8/9/8 18/20/9 17/19/8 
f 8/9/8 9/10/9 18/20/9 
f 9/10/9 19/21/10 18/20/9 
f 9/10/9 10/11/10 19/21/10 
f 10/11/10 12/13/2 19/21/10 
f 10/11/10 3/3/2 12/13/2 
s 1
f 20/22/11 12/13/11 11/12/11 
f 20/22/11 11/12/11 13/14/11 
f 20/22/11 13/16/11 14/15/11 
f 20/22/11 14/15/11 15/17/11 
f 20/22/11 15/17/11 16/18/11 
f 20/22/11 16/18/11 17/19/11 
f 20/22/11 17/19/11 18/20/11 
f 20/22/11 18/20/11 19/21/11 
f 20/22/11 19/21/11 12/13/11 
# 36 faces

#
# object Tilebase107
#

v  -5.0000 -1.0000 5.0000
v  -5.0000 -1.0000 -5.0000
v  5.0000 -1.0000 -5.0000
v  5.0000 -1.0000 5.0000
v  -5.0000 0.0000 5.0000
v  5.0000 0.0000 5.0000
v  5.0000 0.0000 -5.0000
v  -5.0000 0.0000 -5.0000
# 8 vertices

vn 0.0000 -1.0000 -0.0000
vn 0.0000 1.0000 -0.0000
vn 0.0000 0.0000 1.0000
vn 1.0000 0.0000 -0.0000
vn 0.0000 0.0000 -1.0000
vn -1.0000 0.0000 -0.0000
# 6 vertex normals

vt 1.0000 0.0000 0.0000
vt 1.0000 1.0000 0.0000
vt 0.0000 1.0000 0.0000
vt 0.0000 0.0000 0.0000
# 4 texture coords

g Tilebase107
usemtl wire_061135006
s 1
f 21/23/12 22/24/12 23/25/12 
f 23/25/12 24/26/12 21/23/12 
f 25/26/13 26/23/13 27/24/13 
f 27/24/13 28/25/13 25/26/13 
f 21/26/14 24/23/14 26/24/14 
f 26/24/14 25/25/14 21/26/14 
f 24/26/15 23/23/15 27/24/15 
f 27/24/15 26/25/15 24/26/15 
f 23/26/16 22/23/16 28/24/16 
f 28/24/16 27/25/16 23/26/16 
f 22/26/17 21/23/17 25/24/17 
f 25/24/17 28/25/17 22/26/17 
# 12 faces

#
# object Box696
#

v  -0.1960 8.2077 -0.6971
v  -0.1960 8.2077 -0.7971
v  0.2547 7.8834 -0.7971
v  0.2547 7.8834 -0.6971
v  0.4290 7.6965 -0.7971
v  0.4290 7.6965 -0.6971
v  0.5965 7.4998 -0.7971
v  0.5965 7.4998 -0.6971
v  0.6948 7.2044 -0.7971
v  0.6948 7.2044 -0.6971
v  0.2228 8.8057 -0.6971
v  0.6816 8.4932 -0.6971
v  0.6816 8.4932 -0.7971
v  0.2228 8.8057 -0.7971
v  0.9169 8.3933 -0.6971
v  0.9169 8.3933 -0.7971
v  1.1590 8.3032 -0.6971
v  1.1590 8.3032 -0.7971
v  1.4702 8.3118 -0.6971
v  1.4702 8.3118 -0.7971
v  0.5393 8.2899 -0.6971
v  0.0832 8.6064 -0.6971
v  -0.0564 8.4070 -0.6971
v  0.3970 8.0867 -0.6971
v  0.7543 8.1610 -0.6971
v  0.5916 7.9288 -0.6971
v  0.9715 8.0354 -0.6971
v  0.7840 7.7676 -0.6971
v  1.3015 7.8624 -0.6971
v  1.0135 7.4961 -0.6971
v  1.3015 7.8624 -0.7971
v  1.0135 7.4961 -0.7971
v  0.9715 8.0354 -0.7971
v  0.7840 7.7676 -0.7971
v  0.7543 8.1610 -0.7971
v  0.5916 7.9288 -0.7971
v  0.5393 8.2899 -0.7971
v  0.3970 8.0867 -0.7971
v  0.0832 8.6064 -0.7971
v  -0.0564 8.4070 -0.7971
# 40 vertices

vn -0.5840 -0.8117 -0.0000
vn -0.6609 -0.7504 -0.0000
vn -0.7465 -0.6653 -0.0000
vn -0.8710 -0.4912 -0.0000
vn -0.9488 -0.3159 -0.0000
vn 0.5630 0.8264 -0.0000
vn 0.4791 0.8778 -0.0000
vn 0.3699 0.9291 -0.0000
vn 0.1637 0.9865 -0.0000
vn -0.0276 0.9996 -0.0000
vn 0.0000 0.0000 1.0000
vn 0.0000 -0.0000 1.0000
vn 0.8714 -0.4905 -0.0000
vn 0.7331 -0.6802 -0.0000
vn -0.0000 0.0000 -1.0000
vn 0.0000 0.0000 -1.0000
vn -0.8192 0.5736 -0.0000
vn 0.9362 -0.3514 -0.0000
vn 0.6751 -0.7377 -0.0000
vn -0.0000 -0.0000 -1.0000
# 20 vertex normals

vt 1.0000 0.0000 0.0000
vt 1.0000 1.0000 0.0000
vt 0.7500 1.0000 0.0000
vt 0.7500 0.0000 0.0000
vt 0.5000 1.0000 0.0000
vt 0.5000 0.0000 0.0000
vt 0.2500 1.0000 0.0000
vt 0.2500 0.0000 0.0000
vt 0.0000 1.0000 0.0000
vt 0.0000 0.0000 0.0000
vt 0.2500 0.6667 0.0000
vt 0.0000 0.6667 0.0000
vt 0.0000 0.3333 0.0000
vt 0.2500 0.3333 0.0000
vt 0.5000 0.6667 0.0000
vt 0.5000 0.3333 0.0000
vt 0.7500 0.6667 0.0000
vt 0.7500 0.3333 0.0000
vt 1.0000 0.6667 0.0000
vt 1.0000 0.3333 0.0000
# 20 texture coords

g Box696
usemtl wire_027027027
s 2
f 29/27/18 30/28/18 31/29/19 
f 31/29/19 32/30/19 29/27/18 
f 32/30/19 31/29/19 33/31/20 
f 33/31/20 34/32/20 32/30/19 
f 34/32/20 33/31/20 35/33/21 
f 35/33/21 36/34/21 34/32/20 
f 36/34/21 35/33/21 37/35/22 
f 37/35/22 38/36/22 36/34/21 
s 4
f 39/36/23 40/34/24 41/33/24 
f 41/33/24 42/35/23 39/36/23 
f 40/34/24 43/32/25 44/31/25 
f 44/31/25 41/33/24 40/34/24 
f 43/32/25 45/30/26 46/29/26 
f 46/29/26 44/31/25 43/32/25 
f 45/30/26 47/27/27 48/28/27 
f 48/28/27 46/29/26 45/30/26 
s 8
f 49/37/28 50/38/28 51/39/28 
f 51/39/28 52/40/28 49/37/28 
f 53/41/28 49/37/28 52/40/28 
f 52/40/28 54/42/28 53/41/28 
f 55/43/29 53/41/28 54/42/28 
f 54/42/28 56/44/29 55/43/29 
f 57/45/29 55/43/29 56/44/29 
f 56/44/29 58/46/29 57/45/29 
s 16
f 59/45/30 57/38/30 58/39/31 
f 58/39/31 60/46/31 59/45/30 
s 32
f 61/37/32 59/38/32 60/39/32 
f 60/39/32 62/40/32 61/37/32 
f 63/41/33 61/37/32 62/40/32 
f 62/40/32 64/42/33 63/41/33 
f 65/43/33 63/41/33 64/42/33 
f 64/42/33 66/44/33 65/43/33 
f 67/45/33 65/43/33 66/44/33 
f 66/44/33 68/46/33 67/45/33 
s 64
f 50/45/34 67/38/34 68/39/34 
f 68/39/34 51/46/34 50/45/34 
s 8
f 49/37/28 40/33/28 39/35/28 
f 39/35/28 50/38/28 49/37/28 
f 29/36/28 32/34/28 52/40/28 
f 52/40/28 51/39/28 29/36/28 
f 53/41/28 43/31/28 40/33/28 
f 40/33/28 49/37/28 53/41/28 
f 32/34/28 34/32/28 54/42/28 
f 54/42/28 52/40/28 32/34/28 
f 55/43/29 45/29/29 43/31/28 
f 43/31/28 53/41/28 55/43/29 
f 34/32/28 36/30/29 56/44/29 
f 56/44/29 54/42/28 34/32/28 
f 57/45/29 47/28/29 45/29/29 
f 45/29/29 55/43/29 57/45/29 
f 36/30/29 38/27/28 58/46/29 
f 58/46/29 56/44/29 36/30/29 
s 16
f 48/28/35 47/35/35 57/38/30 
f 57/38/30 59/45/30 48/28/35 
f 38/36/36 37/27/36 60/46/31 
f 60/46/31 58/39/31 38/36/36 
s 32
f 46/33/32 48/35/32 59/38/32 
f 59/38/32 61/37/32 46/33/32 
f 60/39/32 37/36/37 35/34/32 
f 35/34/32 62/40/32 60/39/32 
f 44/31/33 46/33/32 61/37/32 
f 61/37/32 63/41/33 44/31/33 
f 62/40/32 35/34/32 33/32/33 
f 33/32/33 64/42/33 62/40/32 
f 41/29/33 44/31/33 63/41/33 
f 63/41/33 65/43/33 41/29/33 
f 64/42/33 33/32/33 31/30/33 
f 31/30/33 66/44/33 64/42/33 
f 42/28/33 41/29/33 65/43/33 
f 65/43/33 67/45/33 42/28/33 
f 66/44/33 31/30/33 30/27/33 
f 30/27/33 68/46/33 66/44/33 
s 64
f 39/28/34 42/35/34 67/38/34 
f 67/38/34 50/45/34 39/28/34 
f 30/36/34 29/27/34 51/46/34 
f 51/46/34 68/39/34 30/36/34 
# 76 faces

#
# object Box695
#

v  -2.8854 0.0000 1.5166
v  -2.8854 0.0000 -3.0602
v  2.9611 0.0000 -3.0602
v  2.9611 0.0000 1.5166
v  -2.8854 4.7787 -0.7429
v  2.9611 4.7787 -0.7429
v  2.9611 4.7787 -0.8007
v  -2.8854 4.7787 -0.8007
v  2.9611 2.7869 1.5166
v  -2.8854 2.7869 1.5166
v  2.9611 2.7869 -3.0602
v  -2.8854 2.7869 -3.0602
v  -1.0536 0.0000 3.6794
v  -1.0536 0.0000 0.4852
v  2.6829 0.0000 0.4852
v  2.6829 0.0000 3.6794
v  -1.0536 1.4130 3.6794
v  2.6829 1.4130 3.6794
v  2.6829 2.7773 0.4852
v  -1.0536 2.7773 0.4852
# 20 vertices

vn 0.0000 -1.0000 -0.0000
vn 0.0000 1.0000 -0.0000
vn 0.0000 0.0000 1.0000
vn 1.0000 0.0000 -0.0000
vn 0.0000 0.0000 -1.0000
vn -1.0000 0.0000 -0.0000
vn 0.0000 0.7501 0.6613
vn 0.0000 0.7501 -0.6613
vn 0.0000 0.9196 0.3928
# 9 vertex normals

vt 1.0000 0.0000 0.0000
vt 1.0000 1.0000 0.0000
vt 0.0000 1.0000 0.0000
vt 0.0000 0.0000 0.0000
# 4 texture coords

g Box695
usemtl wire_060060161
s 1
f 69/47/38 70/48/38 71/49/38 
f 71/49/38 72/50/38 69/47/38 
f 73/50/39 74/47/39 75/48/39 
f 75/48/39 76/49/39 73/50/39 
f 69/50/40 72/47/40 77/48/40 
f 77/48/40 78/49/40 69/50/40 
f 72/50/41 71/47/41 79/48/41 
f 79/48/41 77/49/41 72/50/41 
f 71/50/42 70/47/42 80/48/42 
f 80/48/42 79/49/42 71/50/42 
f 70/50/43 69/47/43 78/48/43 
f 78/48/43 80/49/43 70/50/43 
f 78/49/44 77/48/44 74/47/44 
f 74/47/44 73/50/44 78/49/44 
f 77/49/41 79/48/41 75/48/41 
f 75/48/41 74/47/41 77/49/41 
f 79/49/45 80/48/45 76/49/45 
f 76/49/45 75/48/45 79/49/45 
f 80/49/43 78/48/43 73/50/43 
f 73/50/43 76/49/43 80/49/43 
f 81/47/38 82/48/38 83/49/38 
f 83/49/38 84/50/38 81/47/38 
f 85/50/46 86/47/46 87/48/46 
f 87/48/46 88/49/46 85/50/46 
f 81/50/40 84/47/40 86/48/40 
f 86/48/40 85/49/40 81/50/40 
f 84/50/41 83/47/41 87/48/41 
f 87/48/41 86/49/41 84/50/41 
f 83/50/42 82/47/42 88/48/42 
f 88/48/42 87/49/42 83/50/42 
f 82/50/43 81/47/43 85/48/43 
f 85/48/43 88/49/43 82/50/43 
# 32 faces

